<svg width="73" height="78" viewBox="0 0 73 78" fill="none" xmlns="http://www.w3.org/2000/svg">
<path d="M9.84141 54.0235C9.54366 54.2306 9.22804 54.2812 8.89456 54.1753C8.55841 54.0842 8.28985 53.8942 8.08889 53.6052C7.91228 53.3513 7.77946 53.0668 7.69043 52.752C7.60139 52.4371 7.51845 52.131 7.4416 51.8337C7.43817 51.8101 7.42524 51.7541 7.40279 51.6658C7.38035 51.5774 7.3617 51.5319 7.34685 51.5293C7.35792 51.3397 7.35282 51.1548 7.33153 50.9748C7.30415 50.7859 7.28857 50.5954 7.2848 50.4031C7.28142 50.0807 7.30032 49.7622 7.34149 49.4477C7.38266 49.1333 7.42688 48.8232 7.47414 48.5175C7.47947 48.4878 7.48481 48.4581 7.49014 48.4284C7.49814 48.3839 7.51395 48.3599 7.53755 48.3565C7.64083 47.739 7.83148 47.1257 8.1095 46.5166C8.39019 45.8927 8.73749 45.3458 9.1514 44.8761C9.22679 44.7977 9.2961 44.7105 9.35931 44.6146C9.42252 44.5187 9.49487 44.4359 9.57636 44.3662C9.54173 44.2604 9.49835 44.1606 9.4462 44.067C9.38797 43.9645 9.32841 43.8695 9.26751 43.782C9.18225 43.6594 9.04903 43.5052 8.86784 43.3193C8.68932 43.1187 8.51574 43.0185 8.34708 43.0189C8.29378 43.017 8.24086 43.0343 8.18832 43.0708C8.12968 43.0986 8.07409 43.1308 8.02155 43.1673C7.85516 43.283 7.69219 43.4223 7.53265 43.5852C7.37577 43.7333 7.20976 43.8682 7.03461 43.99C6.94704 44.0509 6.85337 44.1031 6.75362 44.1465C6.65654 44.175 6.56841 44.1323 6.48924 44.0185C6.40398 43.8959 6.39905 43.7954 6.47444 43.717C6.5525 43.6237 6.63532 43.5466 6.7229 43.4857C6.86301 43.3883 7.00484 43.3027 7.14838 43.2288C7.29192 43.155 7.4368 43.0737 7.583 42.985C7.8956 42.7807 8.20953 42.5688 8.5248 42.3496C8.84006 42.1304 9.15095 41.9142 9.45745 41.701C9.55378 41.6341 9.65012 41.5671 9.74645 41.5001C9.83669 41.4243 9.92559 41.356 10.0132 41.2951C10.0219 41.289 10.0263 41.286 10.0263 41.286C10.0202 41.2772 10.0172 41.2728 10.0172 41.2728C10.1162 41.191 10.2152 41.1092 10.3142 41.0273C10.4132 40.9455 10.503 40.8505 10.5838 40.7424C10.5986 40.7451 10.6091 40.7508 10.6152 40.7596C10.6334 40.7858 10.6197 40.8408 10.574 40.9246C10.531 40.9935 10.5068 41.0428 10.5015 41.0725C10.4181 41.1954 10.3137 41.307 10.1885 41.4071C10.0571 41.4984 9.93621 41.5955 9.82579 41.6982C9.69176 41.8044 9.5682 41.9164 9.45511 42.034C9.35078 42.1455 9.22418 42.253 9.0753 42.3566C8.9527 42.4418 8.82267 42.5257 8.68522 42.6083C8.55653 42.6848 8.43088 42.7657 8.30828 42.851L8.31741 42.8641L8.33055 42.855C8.5133 42.8188 8.70613 42.7692 8.90906 42.706C9.02975 42.6741 9.155 42.7234 9.2848 42.854C9.4146 42.9846 9.5069 43.0893 9.56171 43.1681C9.64088 43.282 9.71129 43.4019 9.77294 43.5279C9.8346 43.654 9.89492 43.7874 9.9539 43.9283L9.96704 43.9191L9.97617 43.9323C10.0112 43.9079 10.0917 43.8649 10.2178 43.8033C10.3464 43.7268 10.4826 43.6516 10.6261 43.5778C10.7784 43.4978 10.9119 43.4375 11.0265 43.3968C11.1437 43.3412 11.2159 43.3235 11.2429 43.3437L11.2926 43.3871L11.2794 43.3963L11.2977 43.4225L11.2452 43.4591C11.1919 43.4572 11.1315 43.4731 11.0641 43.507C11.0055 43.5348 10.9543 43.5639 10.9105 43.5944C10.8142 43.6614 10.6805 43.7868 10.5095 43.9706C10.3412 44.1396 10.2525 44.2923 10.2433 44.4286C10.2875 44.5668 10.3347 44.7094 10.3849 44.8563C10.4351 45.0033 10.481 45.1533 10.5225 45.3064C10.5951 45.5416 10.6547 45.7861 10.7011 46.0396C10.7501 46.2783 10.7905 46.5231 10.822 46.774C10.8494 46.9629 10.868 47.1578 10.8779 47.3588C10.8904 47.545 10.9016 47.7386 10.9115 47.9396C10.9191 48.0253 10.9253 48.1183 10.9303 48.2189C10.9352 48.3194 10.9445 48.4168 10.9582 48.5112C10.965 48.5584 10.9749 48.61 10.9879 48.666C10.9947 48.7132 11.0046 48.7648 11.0175 48.8208C11.0236 48.8295 11.0295 48.9034 11.0352 49.0423C11.0348 49.1725 11.0348 49.322 11.0351 49.4906C11.0416 49.668 11.0402 49.8249 11.0311 49.9612C11.0367 50.1001 11.0413 50.1814 11.0447 50.205C11.0397 50.4034 11.0273 50.6004 11.0075 50.7961C10.9877 50.9918 10.9722 51.1844 10.9611 51.374L10.9754 51.4225C10.9472 51.4941 10.9326 51.5758 10.9314 51.6675C10.939 51.7532 10.9361 51.8331 10.9228 51.9074C10.8828 52.1301 10.8108 52.3815 10.7068 52.6617C10.6177 52.9445 10.5015 53.2072 10.3583 53.4497C10.2151 53.6922 10.0428 53.8835 9.84141 54.0235ZM9.81061 53.8111C9.93704 53.6192 10.0517 53.4291 10.1545 53.2407C10.2573 53.0522 10.3392 52.8524 10.4001 52.6411C10.4478 52.504 10.4761 52.3674 10.4853 52.2311C10.5032 52.0887 10.5242 51.9507 10.5482 51.8171C10.6675 51.1105 10.7112 50.398 10.6793 49.6796C10.6536 48.9699 10.6042 48.2637 10.5312 47.5609C10.5244 47.5137 10.5124 47.4311 10.4953 47.3131C10.4721 47.1863 10.455 47.0683 10.4439 46.959C10.4268 46.841 10.424 46.7715 10.4354 46.7506C10.3779 46.6866 10.3389 46.5838 10.3184 46.4422C10.2979 46.3005 10.272 46.1886 10.2408 46.1064L9.99022 45.3257C9.99288 45.3108 9.98813 45.2947 9.97595 45.2771C9.96986 45.2684 9.96243 45.267 9.95368 45.2731L9.96568 45.2063L9.94341 45.2023C9.91221 45.1201 9.88842 45.0392 9.87207 44.9596C9.84962 44.8713 9.81404 44.7921 9.76532 44.722C9.72878 44.6695 9.68519 44.6348 9.63456 44.6181C9.49329 44.8073 9.34763 44.9995 9.1976 45.1948C9.04757 45.39 8.91543 45.5924 8.80118 45.8017C8.64314 46.0416 8.51956 46.3029 8.43043 46.5858C8.34396 46.8538 8.26054 47.1261 8.18016 47.4029C8.12455 47.5845 8.05617 47.7944 7.97504 48.0328C7.89658 48.2562 7.84743 48.4658 7.8276 48.6615C7.81693 48.7209 7.81369 48.7816 7.81786 48.8436C7.82471 48.8908 7.8228 48.9441 7.81213 49.0035C7.78007 49.4806 7.75772 49.9248 7.74509 50.3364C7.73512 50.7331 7.78359 51.1671 7.89049 51.6384C7.90951 51.7032 7.91978 51.774 7.92129 51.8509C7.93156 51.9217 7.93878 51.9881 7.94296 52.0502C7.98936 52.3037 8.05194 52.5526 8.13071 52.7966C8.21557 53.0494 8.33107 53.2809 8.47723 53.4911C8.66601 53.7626 8.86167 53.9318 9.0642 53.9989C9.27281 54.0746 9.52162 54.0121 9.81061 53.8111ZM13.483 47.3206C13.3604 47.4059 13.179 47.4346 12.9388 47.4068C12.6925 47.3702 12.5236 47.2862 12.4323 47.1549L12.4192 47.164C12.4036 47.1229 12.3545 47.0336 12.2719 46.8961C12.1893 46.7587 12.1624 46.6734 12.1914 46.6403L12.1731 46.614C12.1758 46.5992 12.1733 46.5489 12.1657 46.4632C12.1581 46.3776 12.1475 46.2875 12.1338 46.1931C12.1289 46.0926 12.1247 46.0306 12.1213 46.007C12.1171 45.9449 12.1293 45.813 12.1579 45.6112C12.1804 45.4007 12.2133 45.1959 12.2568 44.9968C12.3002 44.7977 12.3394 44.6859 12.3745 44.6616C12.3722 44.5462 12.4076 44.3917 12.4808 44.1979C12.5626 43.998 12.6476 43.8026 12.7356 43.6114C12.8323 43.4143 12.8991 43.2768 12.9361 43.1992L12.9269 43.186L12.9492 43.19L12.9623 43.1809C12.973 43.1215 13.0143 43.0408 13.0863 42.9388C13.1609 42.8219 13.2127 42.7469 13.2417 42.7138C13.2847 42.6449 13.3338 42.5848 13.389 42.5334C13.4442 42.482 13.4995 42.4306 13.5547 42.3792C13.6045 42.3575 13.6514 42.3315 13.6952 42.301C13.7477 42.2645 13.7989 42.2354 13.8488 42.2137C13.9485 42.1703 14.0784 42.1515 14.2383 42.1572C14.3921 42.1542 14.5055 42.2052 14.5786 42.3103C14.5759 42.3252 14.5763 42.3444 14.5797 42.368C14.5832 42.3916 14.5923 42.4047 14.6071 42.4074L14.5363 42.4177C14.4168 42.3579 14.2984 42.3558 14.1811 42.4113C14.0578 42.4581 13.9479 42.515 13.8516 42.582C13.6151 42.7464 13.4082 42.9813 13.2307 43.2866C13.0472 43.5831 12.8954 43.916 12.7754 44.2853C12.6554 44.6546 12.5709 45.0187 12.5217 45.3777C12.4813 45.7306 12.4829 46.0413 12.5267 46.3097L12.5969 46.4947C12.6403 46.5945 12.6718 46.6959 12.6916 46.7991C12.7114 46.9023 12.7548 47.0021 12.8218 47.0984C12.8705 47.1684 12.9158 47.2149 12.9577 47.2377C12.9934 47.2518 13.0545 47.2743 13.141 47.3052L13.1581 47.2738L13.1672 47.2869L13.1752 47.2424L13.2369 47.2189C13.2739 47.1413 13.3213 47.0693 13.3791 47.0031C13.4309 46.9281 13.4635 46.8535 13.4768 46.7793L13.4848 46.7347C13.5252 46.6807 13.552 46.6165 13.5654 46.5423C13.5787 46.4681 13.5907 46.4012 13.6014 46.3419C13.6475 46.1279 13.6936 45.914 13.7397 45.7C13.7858 45.4861 13.8201 45.2738 13.8426 45.0633C13.8552 44.9506 13.8731 44.8082 13.8964 44.6361C13.9196 44.4641 13.951 44.3318 13.9906 44.2393L13.9672 44.1776C14.019 44.1026 14.0421 43.9956 14.0364 43.8567C14.0395 43.7116 14.0412 43.574 14.0416 43.4438C14.0447 43.2987 14.0769 43.2049 14.1382 43.1623L14.1816 43.1126C14.2516 43.0639 14.3299 43.0549 14.4163 43.0858C14.4966 43.1079 14.5581 43.1496 14.6007 43.2109C14.6494 43.2809 14.6824 43.375 14.6995 43.493C14.7166 43.611 14.7407 43.7112 14.7719 43.7934C14.856 44.0077 14.9411 44.1955 15.0271 44.3565C15.107 44.5088 15.2109 44.6769 15.3388 44.8608C15.418 44.9747 15.5025 45.0588 15.5923 45.1133C15.6909 45.1616 15.8101 45.2022 15.9498 45.235L16.0155 45.1893C16.0894 45.034 16.1252 44.8986 16.1229 44.7833C16.1206 44.6679 16.1285 44.5391 16.1464 44.3967C16.1551 44.3906 16.1609 44.3801 16.1635 44.3653C16.1662 44.3504 16.1675 44.343 16.1675 44.343C16.185 44.3308 16.1999 44.3335 16.2121 44.351C16.2364 44.386 16.252 44.4271 16.2589 44.4744C16.2684 44.5067 16.284 44.5478 16.3057 44.5977C16.3552 44.7062 16.3928 44.8164 16.4187 44.9284C16.4472 45.0255 16.3914 45.1227 16.2513 45.2202C16.1725 45.275 16.0728 45.3184 15.9521 45.3503C15.8314 45.3823 15.7191 45.3889 15.6151 45.3702C15.3802 45.3127 15.1844 45.2086 15.0276 45.0578C14.8734 44.8921 14.7293 44.713 14.5954 44.5203L14.303 44.1L14.2768 44.1182C14.2783 44.1951 14.2754 44.2751 14.2682 44.3581C14.2609 44.4411 14.2537 44.5241 14.2464 44.6071C14.2358 44.6665 14.2194 44.7363 14.1973 44.8166C14.1778 44.8821 14.1689 44.9533 14.1704 45.0302C14.1529 45.0424 14.1392 45.0974 14.1293 45.1952C14.122 45.2782 14.1275 45.3329 14.1458 45.3591C14.0906 45.4105 14.0571 45.5118 14.0452 45.6629C14.0422 45.808 14.0275 45.8896 14.0012 45.9079C14.0107 45.9403 14.0105 46.0054 14.0006 46.1032C13.9846 46.1923 13.9726 46.2591 13.9646 46.3037C13.9094 46.355 13.8782 46.4222 13.8709 46.5052C13.8724 46.5821 13.8709 46.6547 13.8663 46.7228C13.8119 46.8126 13.7578 46.9217 13.7041 47.05C13.6443 47.1695 13.5706 47.2597 13.483 47.3206ZM12.5622 42.017L12.5491 42.0261C12.5403 42.0322 12.5167 42.0357 12.4783 42.0364C12.4398 42.0372 12.4233 42.0227 12.4286 41.993C12.4339 41.9633 12.4473 41.8891 12.4686 41.7703C12.4987 41.6454 12.513 41.5445 12.5115 41.4676C12.5287 41.2868 12.5529 41.0881 12.5841 40.8715C12.6241 40.6487 12.6443 40.4723 12.6447 40.3421C12.6478 40.197 12.6888 40.0971 12.7676 40.0423C12.8201 40.0058 12.8865 39.9985 12.9669 40.0206C13.0411 40.034 13.0904 40.0582 13.1148 40.0932C13.1513 40.1457 13.1062 40.333 12.9793 40.6551C12.9565 40.697 12.9437 40.7253 12.9411 40.7402L12.8999 40.9052C12.8919 40.9497 12.8765 40.993 12.8536 41.0348C12.7927 41.2461 12.7361 41.4543 12.6839 41.6595C12.6344 41.8499 12.5938 41.969 12.5622 42.017ZM20.9662 43.5784C20.9224 43.6089 20.8341 43.6313 20.7012 43.6458C20.5684 43.6602 20.4722 43.6621 20.4129 43.6514C20.3028 43.624 20.2012 43.5713 20.1079 43.4932C20.0234 43.409 19.9507 43.3232 19.8898 43.2356C19.6889 42.9466 19.5262 42.5725 19.4018 42.1134C19.2773 41.6542 19.1969 41.249 19.1604 40.8976C19.1536 40.8503 19.1429 40.7603 19.1285 40.6274C19.1228 40.4885 19.1127 40.3526 19.0983 40.2197C19.0838 40.0868 19.0736 40.016 19.0675 40.0072L18.8858 40.2505L18.7979 40.2922L18.807 40.3053C18.7621 40.4275 18.6787 40.5505 18.5568 40.6742C18.435 40.7979 18.3411 40.9151 18.2752 41.0259L18.0182 41.497L17.9919 41.5152C17.9569 41.5396 17.914 41.5434 17.8634 41.5266C17.8155 41.495 17.7823 41.4661 17.7641 41.4398C17.7458 41.4136 17.7726 41.3494 17.8446 41.2474C17.9105 41.1366 17.9939 41.0137 18.0948 40.8785C18.2045 40.7373 18.3041 40.6096 18.3935 40.4954C18.4918 40.3751 18.5554 40.2984 18.5843 40.2653C18.6799 40.1598 18.7637 40.0561 18.8356 39.9541L18.8488 39.945L18.8396 39.9318C18.9009 39.8892 18.9544 39.826 19.0001 39.7423C18.996 39.3813 18.9905 39.0279 18.9838 38.6818C18.9796 38.3209 19.0126 37.9666 19.0827 37.6191L19.1799 37.1422C19.2073 37.0322 19.2233 36.9431 19.2279 36.875C19.2325 36.8068 19.2633 36.7204 19.3205 36.6157C19.3879 36.5819 19.4924 36.5547 19.634 36.5341C19.7844 36.5075 19.8839 36.5292 19.9326 36.5993C19.9509 36.6256 19.9376 36.6998 19.8926 36.822C19.8564 36.9381 19.8159 37.0573 19.7709 37.1795C19.7199 37.2929 19.686 37.3749 19.6692 37.4256L19.5956 37.5158C19.5514 37.6764 19.519 37.8354 19.4984 37.9926C19.4778 38.1498 19.4529 38.3101 19.4235 38.4734C19.4014 38.5538 19.3972 38.6411 19.4109 38.7355C19.4246 38.83 19.4234 38.9217 19.4074 39.0108L19.444 39.0633C19.4325 39.0843 19.4202 39.1319 19.4068 39.2061C19.3962 39.2655 19.3969 39.3039 19.4091 39.3215C19.5641 39.2267 19.7308 39.1302 19.9094 39.032C20.088 38.9338 20.2768 38.9064 20.4759 38.9499C20.3613 38.9906 20.2541 39.0326 20.1544 39.076C20.0573 39.1046 19.9606 39.1523 19.8642 39.2193C19.6891 39.3411 19.5454 39.48 19.433 39.6361C19.433 39.6361 19.4342 39.6938 19.4364 39.8091C19.4387 39.9245 19.4366 40.0429 19.4301 40.1644C19.4263 40.2709 19.4274 40.3286 19.4335 40.3374C19.4316 40.3907 19.4399 40.5148 19.4585 40.7097C19.4711 40.8959 19.488 41.079 19.5093 41.2591C19.5332 41.4243 19.5439 41.5144 19.5412 41.5292C19.5717 41.573 19.5981 41.6391 19.6205 41.7274C19.643 41.8157 19.6607 41.8879 19.6736 41.9438L19.6696 41.9661L19.6788 41.9792C19.7153 42.0318 19.7417 42.0978 19.7581 42.1774C19.7745 42.257 19.7891 42.3247 19.802 42.3807C19.8876 42.672 20.0188 42.9446 20.1954 43.1985C20.2441 43.2686 20.3137 43.3501 20.4043 43.443C20.5037 43.5298 20.608 43.5677 20.7173 43.5567C20.7409 43.5533 20.7864 43.5346 20.8537 43.5008C20.9299 43.4608 20.9771 43.4539 20.9954 43.4802C21.0197 43.5152 21.01 43.548 20.9662 43.5784ZM20.489 38.9407C20.4803 38.9468 20.4759 38.9499 20.4759 38.9499C20.4759 38.9499 20.4803 38.9468 20.489 38.9407ZM22.86 40.9168C22.6411 41.0691 22.3734 41.1512 22.057 41.1634C21.7407 41.1755 21.4972 41.059 21.3267 40.8138C21.2963 40.77 21.2658 40.7262 21.2354 40.6824C21.2137 40.6325 21.1906 40.5901 21.1663 40.555C21.1297 40.5025 21.0599 40.4861 20.9567 40.5059C20.8474 40.5169 20.7745 40.4962 20.738 40.4436C20.7407 40.4288 20.7508 40.4152 20.7683 40.4031C20.8033 40.3787 20.8444 40.3631 20.8916 40.3563C20.9328 40.3407 20.9708 40.3207 21.0059 40.2963C21.0321 40.278 21.0567 40.248 21.0795 40.2061C21.0849 40.1764 21.0651 40.0732 21.0202 39.8966C20.9841 39.7138 20.9529 39.4822 20.9267 39.2016C20.9004 38.921 20.911 38.6278 20.9582 38.3221C20.9994 38.0077 21.106 37.7126 21.2782 37.437C21.3185 37.383 21.3589 37.3289 21.3993 37.2749C21.4423 37.206 21.4901 37.1533 21.5426 37.1167C21.639 37.0497 21.7671 37.0191 21.927 37.0248C22.0895 37.0157 22.2074 37.0637 22.2804 37.1688C22.3231 37.2301 22.3495 37.2962 22.3598 37.367C22.364 37.429 22.3712 37.4955 22.3814 37.5663L22.3432 37.6514C22.3473 37.7134 22.3418 37.8082 22.3266 37.9358C22.314 38.0484 22.3199 38.1223 22.3442 38.1573C22.3442 38.1573 22.3398 38.1604 22.3311 38.1665C22.3311 38.1665 22.3341 38.1709 22.3402 38.1796L22.2968 38.2293C22.2686 38.3009 22.2553 38.3751 22.2568 38.452C22.2583 38.5289 22.2463 38.5957 22.2208 38.6524C22.1336 38.882 22.0433 39.1072 21.95 39.328C21.8654 39.5427 21.7617 39.7577 21.6387 39.9732C21.6158 40.0151 21.5855 40.0556 21.5478 40.0948C21.5101 40.134 21.4903 40.1803 21.4884 40.2336C21.4899 40.3105 21.5063 40.3901 21.5375 40.4723C21.5774 40.5484 21.6218 40.6215 21.6705 40.6916C21.7436 40.7967 21.8521 40.8967 21.996 40.9915C22.1338 41.0775 22.2683 41.0749 22.3997 40.9835C22.4172 40.9714 22.4304 40.9622 22.4391 40.9561C22.4505 40.9352 22.4606 40.9217 22.4694 40.9156C22.5219 40.8791 22.5671 40.8412 22.6048 40.802C22.6512 40.7567 22.6977 40.7114 22.7441 40.6661L22.7955 40.5719L22.8087 40.5627C22.8524 40.5323 22.9143 40.4438 22.9943 40.2972C23.0769 40.1358 23.1552 39.9775 23.2291 39.8221C23.2969 39.6581 23.3348 39.5538 23.3428 39.5092C23.3542 39.4883 23.3582 39.466 23.3548 39.4424C23.3601 39.4127 23.3641 39.3904 23.3668 39.3756C23.4365 39.1582 23.5136 38.9422 23.5982 38.7275C23.6827 38.5128 23.7464 38.2866 23.789 38.0491L23.7982 38.0622L23.8244 38.0439C23.8461 38.0938 23.8416 38.162 23.8107 38.2484C23.7886 38.3287 23.7796 38.3999 23.7838 38.462C23.8093 38.7041 23.7717 38.9771 23.6712 39.2808C23.5706 39.5846 23.4724 39.8544 23.3764 40.09C23.3455 40.1764 23.3177 40.2672 23.293 40.3624C23.2709 40.4427 23.2339 40.5204 23.1821 40.5954C23.0812 40.7305 22.9738 40.8376 22.86 40.9168ZM21.3429 39.8281C21.4129 39.7794 21.4603 39.7074 21.4851 39.6123C21.5125 39.5022 21.5407 39.4307 21.5696 39.3976L21.5919 39.4016L21.5828 39.3884C21.6944 39.1939 21.7759 38.9748 21.8273 38.7312C21.8875 38.4814 21.9376 38.2452 21.9776 38.0225L22.0039 38.0042C21.9674 37.9517 21.9672 37.8674 22.0034 37.7513C22.0335 37.6264 22.0333 37.5421 22.0028 37.4983C22.0082 37.4686 22.0074 37.4301 22.0006 37.3829C21.9876 37.3269 21.9751 37.2902 21.9629 37.2727C21.9244 37.2734 21.879 37.2921 21.8264 37.3286C21.7948 37.3766 21.7592 37.4468 21.7196 37.5393C21.68 37.6318 21.6339 37.6964 21.5814 37.7329C21.5874 37.7417 21.568 37.8071 21.5231 37.9293C21.4869 38.0455 21.4494 38.169 21.4105 38.2999C21.3717 38.4309 21.3482 38.5187 21.3402 38.5632C21.3269 38.6374 21.3116 38.765 21.2945 38.9458C21.2773 39.1266 21.2689 39.3014 21.2693 39.47C21.2696 39.6387 21.2911 39.7537 21.3337 39.815L21.3429 39.8281ZM29.5058 37.2308C29.462 37.2612 29.4151 37.2873 29.3653 37.309C29.3241 37.3246 29.2786 37.3432 29.2288 37.3649L29.2076 37.4186C28.9883 37.4022 28.7868 37.3085 28.6029 37.1375C28.4278 36.9605 28.2824 36.7888 28.1667 36.6224C28.0449 36.4472 27.9275 36.269 27.8145 36.0878C27.7041 35.8917 27.5954 35.7074 27.4885 35.535C27.412 35.4063 27.3442 35.2715 27.2852 35.1306C27.235 34.9836 27.1703 34.8532 27.0911 34.7394C27.0546 34.6868 27.0259 34.6549 27.0049 34.6434L26.9604 34.6354L26.9433 34.6668C26.8976 34.7506 26.8928 34.8838 26.9289 35.0666C26.9677 35.2345 26.994 35.3656 27.0076 35.4601C27.0179 35.5309 27.0297 35.6786 27.043 35.9032C27.0589 36.113 27.0675 36.3214 27.0686 36.5285C27.0697 36.7356 27.0605 36.8719 27.0411 36.9374C27.0049 37.0535 26.9474 37.139 26.8686 37.1938C26.781 37.2547 26.6826 37.2906 26.5733 37.3017C26.4728 37.3066 26.386 37.2565 26.3129 37.1514C26.2886 37.1164 26.2496 37.0136 26.1959 36.843C26.151 36.6664 26.1027 36.4661 26.051 36.2423C25.9992 36.0184 25.9405 35.8124 25.8746 35.6243C25.8115 35.4214 25.7494 35.2762 25.6885 35.1886C25.652 35.136 25.6206 35.1189 25.5943 35.1372C25.5593 35.1615 25.5183 35.2615 25.4715 35.437C25.4273 35.5976 25.3892 35.767 25.3572 35.9452C25.3191 36.1146 25.2991 36.2259 25.2972 36.2792L25.3148 36.5008C25.2539 36.7121 25.2213 36.9362 25.2171 37.173C25.2144 37.1878 25.2148 37.207 25.2182 37.2306C25.2216 37.2542 25.225 37.2778 25.2285 37.3014C25.2292 37.3399 25.225 37.4273 25.2159 37.5636C25.2094 37.685 25.1985 37.8095 25.1832 37.937C25.1707 38.0497 25.1529 38.127 25.1301 38.1689C25.1465 38.2484 25.151 38.3297 25.1438 38.4127C25.1392 38.4809 25.1289 38.5595 25.1129 38.6486C25.0969 38.7376 25.1043 38.8884 25.1351 39.1009C25.1746 39.3072 25.2056 39.4545 25.2281 39.5429C25.2315 39.5665 25.2087 39.6083 25.1595 39.6685C25.1192 39.7225 25.0859 39.7587 25.0596 39.777C25.0246 39.8013 24.9686 39.8143 24.8917 39.8158C24.8235 39.8112 24.7773 39.7914 24.7529 39.7564C24.7347 39.7301 24.7044 39.6212 24.6622 39.4297C24.6287 39.2321 24.5888 39.0065 24.5424 38.753C24.496 38.4994 24.456 38.2738 24.4226 38.0762C24.3979 37.8726 24.3882 37.7559 24.3935 37.7262C24.3726 37.7147 24.3648 37.6942 24.3701 37.6645C24.3754 37.6348 24.3794 37.6125 24.3821 37.5977C24.3517 37.5539 24.3323 37.4699 24.3239 37.3458C24.3095 37.213 24.2988 37.1229 24.292 37.0757C24.2673 36.872 24.23 36.6316 24.1802 36.3544C24.1391 36.0712 24.0805 35.8001 24.0044 35.5412C23.9371 35.2762 23.8486 35.0649 23.739 34.9073C23.6864 34.9438 23.64 34.9891 23.5996 35.0432C23.5592 35.0972 23.5128 35.1425 23.4602 35.1791C23.4069 35.1772 23.3742 35.1674 23.362 35.1499C23.3255 35.0974 23.3685 35.0285 23.4911 34.9432C23.5558 34.9242 23.6364 34.8812 23.7327 34.8142C23.8317 34.7324 23.9311 34.6698 24.0308 34.6264C24.1306 34.583 24.214 34.6095 24.2809 34.7058C24.3114 34.7496 24.342 34.8777 24.3728 35.0901C24.4124 35.2965 24.4527 35.5413 24.4938 35.8245C24.5287 36.099 24.562 36.3617 24.5936 36.6126C24.6339 36.8574 24.667 37.0358 24.6928 37.1477C24.7145 37.1976 24.72 37.2522 24.7094 37.3116C24.6926 37.3623 24.7055 37.4182 24.7482 37.4795C24.728 37.5066 24.7331 37.542 24.7636 37.5858C24.7697 37.5945 24.7788 37.6076 24.791 37.6252C24.8119 37.6366 24.8285 37.6511 24.8407 37.6686L24.8538 37.6594C24.8469 37.6122 24.8508 37.5056 24.8653 37.3396C24.8798 37.1737 24.8986 37.0046 24.9219 36.8325C24.939 36.6517 24.9486 36.5346 24.9505 36.4813L24.9768 36.4631C25.0046 36.2229 25.0385 35.9914 25.0785 35.7687C25.1212 35.5311 25.1892 35.3019 25.2825 35.0812C25.3054 35.0393 25.312 35.0022 25.3025 34.9698L25.3379 34.9647C25.3555 34.9525 25.3699 34.9359 25.3813 34.915C25.4015 34.888 25.4248 34.8653 25.451 34.847C25.5474 34.7801 25.6667 34.7555 25.8091 34.7734C25.9515 34.7914 26.0592 34.8529 26.1323 34.9579C26.2236 35.0893 26.2742 35.2555 26.2841 35.4565C26.2966 35.6427 26.3149 35.8184 26.3388 35.9836C26.3525 36.078 26.3736 36.1738 26.4022 36.2709C26.4246 36.3592 26.4427 36.4506 26.4564 36.545C26.472 36.5861 26.4853 36.6613 26.4963 36.7706C26.5161 36.8737 26.5382 36.9428 26.5625 36.9779C26.5686 36.9866 26.5747 36.9954 26.5808 37.0041C26.5896 36.9981 26.597 36.9994 26.6031 37.0081C26.661 36.9419 26.6935 36.8673 26.7008 36.7843C26.7019 36.6926 26.7061 36.6052 26.7134 36.5222C26.7218 36.3474 26.7302 36.1727 26.7386 35.998C26.747 35.8232 26.7554 35.6485 26.7638 35.4737L26.7975 35.1579C26.7926 35.0574 26.7903 34.9421 26.7908 34.8119C26.7912 34.6817 26.8098 34.5777 26.8468 34.5001C26.8986 34.4251 26.9551 34.3663 27.0164 34.3236C27.0865 34.2749 27.1714 34.2289 27.2711 34.1855C27.3796 34.136 27.4643 34.1551 27.5252 34.2426C27.6166 34.374 27.6742 34.5223 27.6982 34.6875C27.7161 34.844 27.7501 34.9957 27.8003 35.1427C27.8255 35.2162 27.8783 35.3483 27.959 35.539C28.0336 35.721 28.1156 35.9043 28.2051 36.089C28.2884 36.2649 28.3544 36.3879 28.4032 36.4579C28.4397 36.5105 28.4728 36.5394 28.5025 36.5448C28.4998 36.5596 28.5107 36.5845 28.535 36.6196C28.5594 36.6546 28.5912 36.691 28.6304 36.7287C28.6723 36.7515 28.7128 36.7818 28.752 36.8195C28.8129 36.9071 28.8978 37.0104 29.0067 37.1296C29.1304 37.2515 29.2579 37.2667 29.3893 37.1754L29.3801 37.1622L29.4024 37.1662L29.3933 37.1531C29.4249 37.1051 29.447 37.0248 29.4596 36.9121C29.487 36.8021 29.4996 36.6894 29.4973 36.5741C29.5038 36.4526 29.4949 36.3744 29.4705 36.3393L29.4836 36.3302L29.4928 36.3433C29.4989 36.3521 29.5175 36.3976 29.5487 36.4798C29.5887 36.556 29.6243 36.6352 29.6555 36.7174C29.7015 36.8023 29.7232 36.8522 29.7205 36.8671C29.7087 37.0182 29.6371 37.1394 29.5058 37.2308ZM32.104 34.5665C31.9639 34.6639 31.8253 34.6888 31.6882 34.6412C31.5451 34.5849 31.4309 34.4954 31.3456 34.3728C31.2117 34.1801 31.1015 33.9189 31.0151 33.5892C30.9287 33.2595 30.861 32.9753 30.812 32.7366C30.8017 32.6658 30.7958 32.5919 30.7943 32.515C30.7867 32.4293 30.7616 32.3559 30.7189 32.2946C30.7357 32.2439 30.7294 32.1508 30.7002 32.0153C30.6709 31.8798 30.6575 31.8046 30.6602 31.7897L30.6511 31.7766C30.6221 31.8097 30.6067 31.8529 30.6048 31.9062C30.5968 31.9508 30.577 31.997 30.5454 32.045L30.5323 32.0541C30.5174 32.0514 30.51 32.0501 30.51 32.0501C30.5039 32.0414 30.5008 32.037 30.5008 32.037C30.4826 32.0107 30.4822 31.9915 30.4997 31.9793C30.4929 31.9321 30.5009 31.8875 30.5237 31.8457C30.5405 31.795 30.5454 31.7461 30.5386 31.6989C30.5512 31.5862 30.555 31.4796 30.5501 31.3791C30.5539 31.2725 30.5695 31.1642 30.597 31.0542C30.6556 31.0264 30.7571 30.9948 30.9013 30.9594C31.0396 30.9153 31.133 30.9283 31.1817 30.9983C31.2183 31.0509 31.2337 31.1571 31.2279 31.317C31.231 31.4708 31.2252 31.6307 31.2107 31.7967C31.205 31.9566 31.2029 32.075 31.2044 32.1519C31.2082 32.3441 31.2186 32.4993 31.2357 32.6173C31.2528 32.7353 31.2743 32.8503 31.3002 32.9622C31.3261 33.0742 31.3571 33.2215 31.3932 33.4043C31.4164 33.531 31.4426 33.6622 31.4719 33.7977C31.5012 33.9333 31.5555 34.058 31.6346 34.1718L31.7168 34.29C31.7473 34.3338 31.7852 34.3789 31.8305 34.4254C31.8697 34.4631 31.9068 34.4698 31.9418 34.4454C31.9768 34.421 32.0071 34.3805 32.0326 34.3238C32.0669 34.261 32.088 34.2073 32.096 34.1627C32.1677 33.8921 32.217 33.6174 32.2441 33.3387C32.2799 33.054 32.3144 32.7766 32.3476 32.5067C32.4002 32.1713 32.4528 31.8359 32.5054 31.5005C32.5606 31.1503 32.5997 30.8048 32.6226 30.4641C32.6333 30.4047 32.6344 30.3129 32.6261 30.1888C32.6177 30.0647 32.6398 29.9844 32.6924 29.9478L32.7186 29.9296C32.7624 29.8991 32.8346 29.8814 32.9351 29.8765C33.0383 29.8567 33.1081 29.8731 33.1447 29.9256C33.2238 30.0395 33.2524 30.1366 33.2303 30.2169C33.2169 30.2911 33.2262 30.3886 33.2582 30.5093C33.2799 30.5591 33.2928 30.6151 33.297 30.6772C33.3039 30.7244 33.3094 30.779 33.3135 30.8411C33.3261 31.0272 33.3913 31.2612 33.5093 31.5429C33.636 31.8186 33.7512 32.0309 33.8547 32.1797L33.9369 32.298C33.9795 32.3593 34.0296 32.4219 34.0871 32.4859C34.1384 32.5411 34.1877 32.5653 34.2349 32.5584C34.3077 32.4949 34.3399 32.401 34.3315 32.2769C34.3319 32.1467 34.3266 32.027 34.3156 31.9177C34.3072 31.7936 34.3249 31.7163 34.3687 31.6859L34.4053 31.7384C34.4357 31.7822 34.45 31.8307 34.4481 31.884C34.4549 31.9312 34.4648 31.9828 34.4777 32.0388C34.5097 32.1595 34.5373 32.2832 34.5605 32.41C34.5864 32.5219 34.5292 32.6266 34.3891 32.7241C34.214 32.8458 34.0409 32.8492 33.87 32.7342C33.693 32.6105 33.5558 32.4785 33.4583 32.3384C33.3426 32.172 33.2323 31.976 33.1272 31.7502C33.0249 31.5095 32.9526 31.2935 32.9103 31.102C32.9069 31.0784 32.9035 31.0548 32.9001 31.0312C32.8966 31.0076 32.8845 30.99 32.8635 30.9786L32.8372 30.9969C32.7847 31.0334 32.7552 31.1124 32.7487 31.2339C32.7361 31.3466 32.731 31.4606 32.7332 31.5759C32.7294 31.6825 32.7073 31.7629 32.6669 31.8169L32.6761 31.83L32.6349 31.9951C32.657 32.2136 32.651 32.4386 32.6171 32.6701C32.5832 32.9015 32.5506 33.1256 32.5193 33.3422C32.4934 33.5291 32.4608 33.7532 32.4216 34.0143C32.385 34.2606 32.2791 34.4447 32.104 34.5665ZM39.8709 30.0228C39.8271 30.0533 39.7803 30.0794 39.7304 30.1011C39.6893 30.1167 39.6438 30.1353 39.5939 30.157L39.5728 30.2107C39.3535 30.1943 39.1519 30.1006 38.9681 29.9296C38.793 29.7525 38.6476 29.5808 38.5319 29.4144C38.4101 29.2393 38.2926 29.0611 38.1796 28.8799C38.0692 28.6838 37.9606 28.4995 37.8536 28.327C37.7771 28.1983 37.7094 28.0635 37.6504 27.9227C37.6002 27.7757 37.5355 27.6453 37.4563 27.5315C37.4198 27.4789 37.391 27.4469 37.3701 27.4355L37.3255 27.4275L37.3084 27.4589C37.2627 27.5427 37.2579 27.6759 37.2941 27.8586C37.3329 28.0265 37.3591 28.1577 37.3728 28.2521C37.3831 28.3229 37.3948 28.4707 37.4081 28.6953C37.4241 28.905 37.4326 29.1135 37.4337 29.3206C37.4348 29.5277 37.4257 29.664 37.4062 29.7295C37.37 29.8456 37.3125 29.931 37.2337 29.9859C37.1462 30.0467 37.0477 30.0827 36.9385 30.0937C36.838 30.0987 36.7512 30.0486 36.6781 29.9435C36.6537 29.9085 36.6147 29.8057 36.5611 29.6351C36.5162 29.4584 36.4679 29.2582 36.4161 29.0343C36.3644 28.8105 36.3056 28.6045 36.2398 28.4164C36.1766 28.2135 36.1146 28.0682 36.0537 27.9806C36.0171 27.9281 35.9857 27.911 35.9595 27.9292C35.9244 27.9536 35.8835 28.0535 35.8366 28.229C35.7924 28.3897 35.7543 28.5591 35.7223 28.7372C35.6842 28.9067 35.6642 29.018 35.6623 29.0713L35.68 29.2929C35.619 29.5042 35.5864 29.7282 35.5822 29.965C35.5795 29.9799 35.5799 29.9991 35.5833 30.0227C35.5868 30.0463 35.5902 30.0699 35.5936 30.0935C35.5944 30.132 35.5902 30.2193 35.581 30.3556C35.5745 30.4771 35.5636 30.6016 35.5484 30.7291C35.5358 30.8418 35.5181 30.9191 35.4952 30.9609C35.5116 31.0405 35.5162 31.1218 35.5089 31.2048C35.5043 31.2729 35.494 31.3515 35.478 31.4406C35.462 31.5297 35.4694 31.6805 35.5002 31.8929C35.5398 32.0993 35.5708 32.2466 35.5932 32.3349C35.5967 32.3585 35.5738 32.4004 35.5247 32.4606C35.4843 32.5146 35.451 32.5508 35.4247 32.569C35.3897 32.5934 35.3337 32.6063 35.2568 32.6078C35.1887 32.6033 35.1424 32.5835 35.1181 32.5484C35.0998 32.5222 35.0696 32.4133 35.0273 32.2218C34.9939 32.0242 34.9539 31.7986 34.9075 31.545C34.8611 31.2915 34.8212 31.0659 34.7877 30.8683C34.763 30.6646 34.7533 30.5479 34.7586 30.5182C34.7377 30.5068 34.7299 30.4863 34.7352 30.4566C34.7406 30.4269 34.7446 30.4046 34.7472 30.3897C34.7168 30.346 34.6974 30.262 34.689 30.1379C34.6746 30.005 34.664 29.915 34.6571 29.8678C34.6324 29.6641 34.5951 29.4237 34.5453 29.1465C34.5042 28.8632 34.4456 28.5922 34.3696 28.3333C34.3022 28.0683 34.2137 27.857 34.1041 27.6994C34.0516 27.7359 34.0051 27.7812 33.9648 27.8352C33.9244 27.8893 33.8779 27.9346 33.8254 27.9711C33.7721 27.9692 33.7393 27.9595 33.7272 27.942C33.6906 27.8894 33.7337 27.8205 33.8563 27.7353C33.921 27.7163 34.0015 27.6733 34.0978 27.6063C34.1968 27.5244 34.2962 27.4618 34.396 27.4184C34.4957 27.3751 34.5791 27.4015 34.6461 27.4979C34.6765 27.5416 34.7072 27.6698 34.738 27.8822C34.7775 28.0885 34.8178 28.3334 34.8589 28.6166C34.8939 28.8911 34.9272 29.1538 34.9587 29.4047C34.999 29.6495 35.0321 29.8279 35.058 29.9398C35.0797 29.9897 35.0852 30.0443 35.0745 30.1037C35.0578 30.1543 35.0707 30.2103 35.1133 30.2716C35.0931 30.2986 35.0983 30.334 35.1287 30.3778C35.1348 30.3866 35.1439 30.3997 35.1561 30.4172C35.1771 30.4286 35.1936 30.4431 35.2058 30.4606L35.2189 30.4515C35.2121 30.4043 35.2159 30.2977 35.2304 30.1317C35.2449 29.9657 35.2638 29.7967 35.287 29.6246C35.3042 29.4438 35.3137 29.3267 35.3156 29.2734L35.3419 29.2551C35.3698 29.0149 35.4037 28.7835 35.4437 28.5607C35.4864 28.3232 35.5544 28.094 35.6477 27.8732C35.6705 27.8313 35.6772 27.7942 35.6677 27.7619L35.7031 27.7567C35.7206 27.7445 35.7351 27.728 35.7465 27.7071C35.7667 27.68 35.7899 27.6574 35.8162 27.6391C35.9125 27.5721 36.0319 27.5476 36.1742 27.5655C36.3166 27.5834 36.4244 27.6449 36.4974 27.75C36.5888 27.8814 36.6394 28.0476 36.6493 28.2486C36.6618 28.4347 36.68 28.6104 36.704 28.7757C36.7177 28.8701 36.7388 28.9658 36.7673 29.0629C36.7898 29.1513 36.8078 29.2426 36.8215 29.3371C36.8371 29.3782 36.8504 29.4534 36.8615 29.5626C36.8812 29.6658 36.9033 29.7349 36.9277 29.7699C36.9338 29.7787 36.9399 29.7875 36.9459 29.7962C36.9547 29.7901 36.9621 29.7915 36.9682 29.8002C37.0261 29.734 37.0587 29.6594 37.0659 29.5764C37.0671 29.4846 37.0713 29.3972 37.0785 29.3143C37.0869 29.1395 37.0953 28.9648 37.1037 28.79C37.1121 28.6153 37.1205 28.4405 37.1289 28.2658L37.1627 27.95C37.1578 27.8495 37.1555 27.7341 37.1559 27.6039C37.1563 27.4737 37.175 27.3698 37.2119 27.2921C37.2637 27.2171 37.3203 27.1583 37.3816 27.1157C37.4516 27.067 37.5365 27.0209 37.6363 26.9776C37.7448 26.9281 37.8295 26.9471 37.8904 27.0347C37.9817 27.1661 38.0394 27.3144 38.0633 27.4796C38.0812 27.6361 38.1153 27.7878 38.1655 27.9347C38.1906 28.0082 38.2435 28.1403 38.3242 28.3311C38.3988 28.5131 38.4808 28.6964 38.5702 28.8811C38.6536 29.057 38.7196 29.1799 38.7683 29.25C38.8048 29.3026 38.838 29.3315 38.8677 29.3368C38.865 29.3517 38.8758 29.3766 38.9002 29.4116C38.9246 29.4467 38.9563 29.483 38.9955 29.5207C39.0374 29.5436 39.078 29.5739 39.1172 29.6116C39.1781 29.6991 39.2629 29.8025 39.3718 29.9217C39.4955 30.0435 39.6231 30.0588 39.7544 29.9674L39.7453 29.9543L39.7675 29.9583L39.7584 29.9452C39.79 29.8972 39.8121 29.8169 39.8247 29.7042C39.8521 29.5942 39.8647 29.4815 39.8624 29.3661C39.8689 29.2447 39.86 29.1664 39.8356 29.1314L39.8488 29.1223L39.8579 29.1354C39.864 29.1442 39.8827 29.1897 39.9139 29.2719C39.9538 29.3481 39.9894 29.4272 40.0206 29.5095C40.0667 29.5944 40.0884 29.6443 40.0857 29.6591C40.0739 29.8103 40.0023 29.9315 39.8709 30.0228ZM40.4863 28.5425C40.3637 28.6278 40.1823 28.6565 39.942 28.6287C39.6957 28.5921 39.5269 28.5081 39.4356 28.3767L39.4224 28.3859C39.4068 28.3448 39.3577 28.2555 39.2751 28.118C39.1925 27.9806 39.1657 27.8953 39.1946 27.8622L39.1764 27.8359C39.179 27.8211 39.1766 27.7708 39.169 27.6851C39.1614 27.5995 39.1507 27.5094 39.137 27.415C39.1321 27.3145 39.1279 27.2525 39.1245 27.2289C39.1203 27.1668 39.1325 27.0349 39.1611 26.8331C39.1836 26.6226 39.2166 26.4178 39.26 26.2187C39.3035 26.0196 39.3427 25.9078 39.3777 25.8835C39.3755 25.7681 39.4109 25.6136 39.484 25.4198C39.5659 25.2199 39.6508 25.0244 39.7388 24.8333C39.8355 24.6362 39.9024 24.4987 39.9393 24.4211L39.9302 24.4079L39.9525 24.4119L39.9656 24.4028C39.9763 24.3434 40.0176 24.2627 40.0896 24.1607C40.1642 24.0438 40.216 23.9688 40.2449 23.9357C40.288 23.8668 40.3371 23.8067 40.3923 23.7553C40.4475 23.7039 40.5027 23.6525 40.5579 23.6011C40.6078 23.5794 40.6546 23.5534 40.6984 23.5229C40.751 23.4864 40.8022 23.4573 40.8521 23.4356C40.9518 23.3922 41.0816 23.3734 41.2415 23.3791C41.3953 23.3761 41.5088 23.4271 41.5819 23.5322C41.5792 23.547 41.5796 23.5663 41.583 23.5899C41.5864 23.6135 41.5955 23.6266 41.6104 23.6293L41.5396 23.6396C41.42 23.5798 41.3016 23.5776 41.1844 23.6332C41.061 23.68 40.9512 23.7369 40.8548 23.8039C40.6184 23.9683 40.4114 24.2032 40.234 24.5085C40.0504 24.805 39.8987 25.1379 39.7787 25.5072C39.6587 25.8765 39.5741 26.2406 39.5249 26.5996C39.4845 26.9525 39.4862 27.2632 39.5299 27.5316L39.6001 27.7166C39.6435 27.8164 39.6751 27.9178 39.6949 28.021C39.7147 28.1242 39.758 28.2239 39.825 28.3203C39.8737 28.3903 39.919 28.4368 39.9609 28.4596C39.9967 28.4737 40.0578 28.4962 40.1442 28.5271L40.1614 28.4957L40.1705 28.5088L40.1785 28.4642L40.2402 28.4408C40.2771 28.3632 40.3245 28.2912 40.3824 28.225C40.4342 28.15 40.4668 28.0754 40.4801 28.0012L40.4881 27.9566C40.5285 27.9026 40.5553 27.8384 40.5686 27.7642C40.582 27.69 40.594 27.6231 40.6047 27.5638C40.6508 27.3498 40.6969 27.1358 40.743 26.9219C40.7891 26.7079 40.8234 26.4957 40.8459 26.2852C40.8584 26.1725 40.8764 26.0301 40.8996 25.858C40.9229 25.686 40.9543 25.5537 40.9939 25.4612L40.9705 25.3995C41.0223 25.3245 41.0453 25.2175 41.0397 25.0786C41.0427 24.9335 41.0445 24.7959 41.0449 24.6657C41.0479 24.5206 41.0801 24.4268 41.1414 24.3842L41.1848 24.3345C41.2549 24.2858 41.3331 24.2768 41.4195 24.3077C41.4999 24.3298 41.5613 24.3715 41.604 24.4328C41.6527 24.5028 41.6856 24.5969 41.7027 24.7149C41.7198 24.8329 41.744 24.933 41.7752 25.0153C41.8593 25.2296 41.9444 25.4173 42.0304 25.5784C42.1103 25.7307 42.2142 25.8988 42.3421 26.0827C42.4213 26.1965 42.5058 26.2807 42.5956 26.3352C42.6942 26.3835 42.8133 26.4241 42.9531 26.4569L43.0187 26.4112C43.0926 26.2559 43.1284 26.1205 43.1262 26.0052C43.1239 25.8898 43.1317 25.7609 43.1496 25.6186C43.1584 25.6125 43.1641 25.602 43.1668 25.5872C43.1695 25.5723 43.1708 25.5649 43.1708 25.5649C43.1883 25.5527 43.2032 25.5554 43.2153 25.5729C43.2397 25.6079 43.2553 25.649 43.2621 25.6962C43.2716 25.7286 43.2873 25.7697 43.3089 25.8196C43.3584 25.9281 43.3961 26.0383 43.422 26.1503C43.4505 26.2474 43.3947 26.3446 43.2546 26.4421C43.1758 26.4969 43.076 26.5402 42.9553 26.5722C42.8346 26.6042 42.7223 26.6108 42.6184 26.5921C42.3835 26.5346 42.1876 26.4305 42.0308 26.2797C41.8767 26.114 41.7326 25.9349 41.5986 25.7422L41.3063 25.3219L41.28 25.3401C41.2815 25.417 41.2787 25.497 41.2714 25.58C41.2642 25.663 41.2569 25.746 41.2497 25.829C41.239 25.8884 41.2226 25.9582 41.2005 26.0385C41.1811 26.104 41.1721 26.1752 41.1737 26.2521C41.1561 26.2643 41.1424 26.3193 41.1325 26.4171C41.1253 26.5001 41.1308 26.5548 41.149 26.581C41.0938 26.6324 41.0603 26.7337 41.0485 26.8848C41.0454 27.0299 41.0307 27.1115 41.0045 27.1298C41.014 27.1622 41.0138 27.2273 41.0039 27.3251C40.9879 27.4142 40.9759 27.481 40.9679 27.5256C40.9126 27.5769 40.8814 27.6441 40.8742 27.7271C40.8757 27.804 40.8741 27.8765 40.8696 27.9447C40.8151 28.0345 40.761 28.1436 40.7073 28.2719C40.6475 28.3914 40.5739 28.4816 40.4863 28.5425ZM47.1444 24.1463C46.9955 24.2498 46.8017 24.3261 46.563 24.3752C46.3331 24.4182 46.13 24.397 45.9537 24.3117C45.8639 24.2573 45.7794 24.1731 45.7002 24.0593C45.5845 23.8929 45.5063 23.7524 45.4656 23.6378C45.4188 23.5144 45.3868 23.3937 45.3697 23.2757C45.3552 23.1428 45.33 22.985 45.2938 22.8023C45.2904 22.7787 45.2936 22.718 45.3036 22.6201C45.3222 22.5162 45.3409 22.4123 45.3596 22.3083C45.3809 22.1896 45.3912 22.1109 45.3905 22.0725L45.4031 21.8104C45.3989 21.7483 45.4143 21.7051 45.4493 21.6807C45.487 21.6415 45.5129 21.604 45.527 21.5683C45.5118 21.3969 45.5351 21.2249 45.5968 21.052C45.625 20.9805 45.6891 20.8579 45.7893 20.6843C45.8894 20.5107 45.9658 20.4056 46.0183 20.3691C46.0621 20.3387 46.1076 20.32 46.1548 20.3132C46.202 20.3063 46.2432 20.2907 46.2782 20.2664L46.2953 20.235C46.3555 20.2841 46.4253 20.3005 46.5049 20.2841C46.5932 20.2617 46.6709 20.2986 46.7379 20.3949C46.7561 20.4212 46.7721 20.4815 46.7858 20.576C46.7995 20.6704 46.8088 20.7678 46.8138 20.8684C46.8214 20.954 46.812 21.006 46.7857 21.0243C46.758 20.9656 46.7376 20.9083 46.7247 20.8523C46.7056 20.7876 46.6779 20.729 46.6413 20.6764C46.6109 20.6327 46.5673 20.598 46.5106 20.5725C46.4478 20.5382 46.3901 20.5393 46.3375 20.5759C46.2324 20.649 46.142 20.7898 46.0662 20.9984C45.9904 21.207 45.9355 21.4271 45.9016 21.6586C45.8616 21.8813 45.834 22.0564 45.8187 22.1839C45.7909 22.4241 45.7661 22.6687 45.7444 22.9177C45.7314 23.1606 45.7656 23.3967 45.847 23.6259C45.8782 23.7081 45.9064 23.786 45.9315 23.8594C45.9654 23.9268 46.0097 23.9999 46.0645 24.0788C46.1003 24.0928 46.1304 24.1174 46.1548 24.1524C46.173 24.1787 46.2031 24.2033 46.245 24.2261C46.3375 24.2657 46.4309 24.2787 46.5254 24.265C46.6137 24.2426 46.6973 24.2039 46.7761 24.1491C46.9337 24.0395 47.0569 23.9084 47.1456 23.7557C47.2344 23.6031 47.3181 23.4993 47.3969 23.4445C47.4278 23.3581 47.4647 23.2805 47.5078 23.2115C47.5447 23.1339 47.5817 23.0562 47.6186 22.9786C47.6624 22.9481 47.701 22.8823 47.7346 22.781C47.7707 22.6649 47.8003 22.5859 47.8231 22.544C47.9366 22.2962 48.0413 22.0545 48.1373 21.8188C48.2333 21.5832 48.3201 21.3344 48.3978 21.0725C48.4146 21.0219 48.438 20.9341 48.4681 20.8092C48.507 20.6783 48.5409 20.5962 48.5698 20.5631C48.5611 20.5692 48.558 20.5648 48.5607 20.55C48.5931 20.5405 48.6245 20.5576 48.6549 20.6014C48.7158 20.689 48.7097 20.8297 48.6366 21.0234C48.5573 21.2084 48.5023 21.3441 48.4715 21.4306C48.4635 21.4751 48.4615 21.5284 48.4657 21.5905C48.4699 21.6525 48.4501 21.6988 48.4063 21.7292L48.4206 21.7778C48.3836 21.8554 48.337 21.9658 48.2806 22.109C48.233 22.246 48.2035 22.325 48.1921 22.3459C48.1429 22.4061 48.1087 22.4689 48.0892 22.5344C48.0637 22.5911 48.0399 22.6596 48.0178 22.7399C47.9782 22.8324 47.9447 22.9337 47.9173 23.0437C47.8986 23.1477 47.8455 23.2301 47.7579 23.291C47.764 23.2997 47.7626 23.3072 47.7539 23.3132C47.7817 23.3719 47.771 23.4313 47.7219 23.4914C47.6667 23.5428 47.6276 23.5894 47.6048 23.6313C47.5537 23.7447 47.4905 23.8407 47.4151 23.9191C47.3485 23.9914 47.2583 24.0672 47.1444 24.1463ZM50.494 22.0509C50.3539 22.1483 50.2244 22.1864 50.1057 22.165C50.0017 22.1463 49.9279 22.1522 49.8841 22.1827C49.8449 22.145 49.772 22.1242 49.6654 22.1204C49.5588 22.1166 49.4385 22.0183 49.3045 21.8257C49.1827 21.6505 49.1156 21.4699 49.103 21.2837C49.0905 21.0975 49.0631 20.9087 49.0209 20.7172C49.008 20.6612 48.9863 20.6113 48.9558 20.5676C48.9193 20.515 48.8976 20.4651 48.8907 20.4179C48.8656 20.3444 48.8523 20.2692 48.8508 20.1923C48.8493 20.1154 48.8478 20.0385 48.8463 19.9616C48.8102 19.48 48.8548 19.0397 48.9801 18.6408C49.0994 18.2331 49.2911 17.8269 49.5554 17.4222L49.5685 17.4131C49.6001 17.3651 49.6611 17.3033 49.7513 17.2275C49.8355 17.143 49.8994 17.0855 49.9432 17.0551C50.0308 16.9942 50.1218 16.9569 50.2162 16.9432C50.3106 16.9295 50.3841 16.9044 50.4366 16.8679L50.4286 16.9124C50.5318 16.8926 50.6297 16.9026 50.7222 16.9422C50.8086 16.973 50.8963 16.9964 50.9854 17.0124C51.0151 17.0178 51.0448 17.0231 51.0745 17.0285C51.1042 17.0338 51.1295 17.0422 51.1504 17.0536C51.195 17.0616 51.2399 17.0888 51.2852 17.1353C51.3305 17.1817 51.3684 17.2269 51.3988 17.2706C51.5572 17.4983 51.6433 17.7437 51.6574 18.0068C51.6714 18.2699 51.6693 18.5377 51.651 18.8103C51.6506 18.9405 51.6502 19.0707 51.6498 19.2009C51.6581 19.325 51.6503 19.4539 51.6263 19.5875C51.6209 19.6172 51.6032 19.6945 51.5731 19.8193C51.5518 19.9381 51.5305 20.0569 51.5091 20.1757C51.4904 20.2796 51.4828 20.3434 51.4862 20.367C51.4432 20.4359 51.4137 20.5149 51.3977 20.6039C51.3817 20.693 51.3582 20.7808 51.3274 20.8672C51.2489 21.0907 51.1408 21.3088 51.0029 21.5216C50.8651 21.7344 50.6954 21.9108 50.494 22.0509ZM50.3187 21.9389C50.3187 21.9389 50.3678 21.8788 50.4661 21.7585C50.5643 21.6382 50.6279 21.5615 50.6569 21.5284C50.6885 21.4804 50.7412 21.3788 50.8151 21.2234C50.8916 21.0533 50.9594 20.8892 51.0185 20.7312C51.0714 20.5645 51.0857 20.4636 51.0614 20.4286C51.1105 20.3684 51.148 20.2449 51.1739 20.058C51.2025 19.8562 51.2237 19.6531 51.2374 19.4487C51.2451 19.2355 51.2481 19.0904 51.2466 19.0135C51.252 18.9838 51.2522 18.9187 51.2472 18.8182C51.2362 18.7089 51.2351 18.6513 51.2438 18.6452C51.2282 18.604 51.217 18.5599 51.2102 18.5127C51.206 18.4506 51.1948 18.4065 51.1765 18.3802C51.1906 18.3444 51.1773 18.2692 51.1365 18.1546C51.0897 18.0312 51.0751 17.9635 51.0926 17.9513L51.0703 17.9473C51.0669 17.9237 51.0622 17.9075 51.0561 17.8988C51.0526 17.8751 51.0523 17.8559 51.0549 17.8411C51.0184 17.7885 50.9937 17.7343 50.9807 17.6783C50.9617 17.6136 50.9339 17.5549 50.8974 17.5024C50.8905 17.4552 50.8688 17.4053 50.8323 17.3528C50.7958 17.3002 50.7653 17.2564 50.741 17.2214L50.745 17.1991L50.7358 17.186C50.681 17.1072 50.606 17.0554 50.5109 17.0306C50.4244 16.9998 50.3331 17.0179 50.2367 17.0848C49.9915 17.2554 49.8108 17.472 49.6947 17.7346C49.5812 17.9824 49.4812 18.2404 49.3947 18.5084C49.3639 18.5948 49.3361 18.6856 49.3113 18.7808C49.2805 18.8672 49.2601 18.9593 49.2502 19.0571C49.2387 19.0781 49.2247 19.1139 49.2079 19.1645C49.1911 19.2151 49.1919 19.2536 49.2102 19.2798C49.2829 19.2163 49.336 19.1339 49.3695 19.0326C49.4057 18.9165 49.4939 18.8097 49.634 18.7123C49.6778 18.6818 49.7884 18.6634 49.9658 18.6569C50.1519 18.6444 50.2603 18.66 50.2907 18.7038L50.309 18.7301C50.2443 18.7491 50.1927 18.759 50.1542 18.7598C50.1245 18.7544 50.0746 18.7761 50.0046 18.8248C49.8294 18.9466 49.6986 19.1415 49.6122 19.4095C49.5284 19.6627 49.4722 19.8902 49.4436 20.0919C49.4215 20.1723 49.4024 20.257 49.3864 20.3461C49.3792 20.429 49.3794 20.5134 49.387 20.599C49.4033 20.6786 49.4389 20.7578 49.4937 20.8366C49.5051 20.8157 49.5318 20.8166 49.5737 20.8395C49.6094 20.8536 49.6334 20.8694 49.6456 20.8869L49.6062 20.9143C49.5624 20.9447 49.5213 20.9603 49.4828 20.9611C49.4471 20.947 49.4204 20.9461 49.4029 20.9582C49.3861 21.0089 49.3954 21.1063 49.4308 21.2506C49.4662 21.3949 49.4751 21.4732 49.4576 21.4853C49.4732 21.5265 49.4919 21.572 49.5136 21.6218C49.5379 21.6569 49.5623 21.6919 49.5866 21.7269C49.6841 21.867 49.7895 21.9626 49.903 22.0136C50.0225 22.0734 50.1611 22.0485 50.3187 21.9389ZM53.3557 19.3398C53.3031 19.3763 53.2236 19.3927 53.117 19.3889C53.0191 19.3789 52.9519 19.3477 52.9154 19.2952C52.7997 19.1288 52.7034 18.8969 52.6265 18.5996C52.5497 18.3022 52.4843 17.9839 52.4303 17.6447C52.385 17.2994 52.3445 16.9703 52.3088 16.6573C52.2818 16.3383 52.2604 16.0739 52.2444 15.8641C52.2334 15.7548 52.2106 15.6473 52.1759 15.5414C52.1501 15.4295 52.1434 15.3172 52.156 15.2045C52.2321 15.1645 52.3262 15.1316 52.4381 15.1058C52.5588 15.0738 52.6526 15.106 52.7196 15.2023C52.7684 15.2724 52.7794 15.3816 52.7527 15.5301C52.7287 15.6637 52.7131 15.7721 52.7058 15.855C52.6654 16.208 52.6547 16.5662 52.6737 16.9298C52.7014 17.2873 52.7453 17.64 52.8054 17.988C52.8157 18.0588 52.8303 18.1266 52.8493 18.1913C52.8623 18.2473 52.8752 18.3032 52.8881 18.3592C52.9011 18.4152 52.9096 18.4742 52.9138 18.5362C52.9119 18.5895 52.9262 18.6381 52.9566 18.6819C52.9688 18.6994 52.9884 18.7182 53.0154 18.7384C53.0424 18.7586 53.0691 18.7595 53.0954 18.7413C53.1167 18.6225 53.144 18.4281 53.1771 18.1582C53.2042 17.8796 53.2414 17.5874 53.2886 17.2817C53.3298 16.9672 53.3717 16.6912 53.4144 16.4536C53.4658 16.21 53.5087 16.0568 53.543 15.994C53.5544 15.973 53.5689 15.9565 53.5864 15.9443C53.5978 15.9233 53.6123 15.9068 53.6298 15.8946C53.7699 15.7972 53.9251 15.7867 54.0952 15.8633C54.2593 15.9311 54.384 16.0263 54.4692 16.1489C54.5667 16.289 54.6479 16.4339 54.713 16.5835C54.7781 16.7331 54.8563 16.8736 54.9476 17.005C55.0207 17.1101 55.137 17.2306 55.2965 17.3665C55.456 17.5025 55.6058 17.5217 55.7459 17.4243C55.7688 17.3824 55.796 17.3375 55.8276 17.2895C55.8592 17.2416 55.8925 17.2054 55.9275 17.181C55.9538 17.1628 55.9791 17.1711 56.0035 17.2062C56.0339 17.25 56.032 17.3033 55.9978 17.3661C55.9722 17.4228 55.942 17.4633 55.9069 17.4877C55.7756 17.579 55.6002 17.6165 55.381 17.6001C55.1556 17.5749 54.9828 17.5132 54.8625 17.415C54.7361 17.308 54.6185 17.1949 54.5096 17.0757C54.4034 16.9417 54.3046 16.809 54.2133 16.6776C54.1707 16.6163 54.1141 16.5257 54.0437 16.4058C53.976 16.271 53.9299 16.1861 53.9056 16.1511C53.853 16.1876 53.8104 16.2757 53.7776 16.4154C53.7388 16.5464 53.7104 16.6831 53.6925 16.8255C53.6684 16.9591 53.6542 17.06 53.6496 17.1281C53.6442 17.1578 53.6301 17.1936 53.6073 17.2355C53.5932 17.2712 53.5822 17.3114 53.5742 17.356C53.5696 17.4241 53.5667 17.504 53.5655 17.5958C53.5583 17.6788 53.548 17.7574 53.5347 17.8316C53.5293 17.8613 53.5112 17.9194 53.4804 18.0058C53.4583 18.0861 53.4476 18.1455 53.4484 18.184C53.4655 18.302 53.4664 18.4248 53.4512 18.5523C53.4359 18.6798 53.4281 18.8087 53.4277 18.9389C53.4285 18.9774 53.4353 19.0246 53.4482 19.0805C53.4551 19.1278 53.4515 19.1693 53.4374 19.205C53.4354 19.2583 53.4082 19.3033 53.3557 19.3398ZM58.2577 17.6459C58.2139 17.6764 58.1256 17.6988 57.9927 17.7133C57.8598 17.7277 57.7637 17.7296 57.7043 17.7189C57.5943 17.6915 57.4926 17.6387 57.3994 17.5607C57.3149 17.4765 57.2422 17.3907 57.1813 17.3031C56.9803 17.0141 56.8176 16.64 56.6932 16.1809C56.5688 15.7217 56.4883 15.3164 56.4518 14.965C56.445 14.9178 56.4344 14.8278 56.4199 14.6949C56.4142 14.556 56.4042 14.42 56.3897 14.2872C56.3753 14.1543 56.365 14.0835 56.3589 14.0747L56.1773 14.318L56.0893 14.3596L56.0985 14.3728C56.0535 14.495 55.9701 14.6179 55.8483 14.7416C55.7264 14.8654 55.6326 14.9826 55.5667 15.0934L55.3096 15.5645L55.2833 15.5827C55.2483 15.6071 55.2055 15.6109 55.1549 15.5941C55.1069 15.5625 55.0738 15.5336 55.0555 15.5073C55.0372 15.481 55.0641 15.4169 55.1361 15.3149C55.2019 15.2041 55.2853 15.0811 55.3862 14.946C55.4959 14.8048 55.5955 14.6771 55.685 14.5629C55.7832 14.4426 55.8468 14.3659 55.8757 14.3328C55.9713 14.2273 56.0551 14.1236 56.1271 14.0216L56.1402 14.0124L56.1311 13.9993C56.1924 13.9567 56.2459 13.8935 56.2916 13.8097C56.2874 13.4488 56.282 13.0953 56.2752 12.7493C56.2711 12.3884 56.3041 12.0341 56.3742 11.6865L56.4713 11.2097C56.4988 11.0997 56.5148 11.0106 56.5193 10.9425C56.5239 10.8743 56.5548 10.7879 56.6119 10.6832C56.6793 10.6493 56.7838 10.6221 56.9254 10.6016C57.0758 10.575 57.1754 10.5967 57.2241 10.6668C57.2423 10.693 57.229 10.7673 57.1841 10.8895C57.1479 11.0056 57.1073 11.1247 57.0624 11.2469C57.0113 11.3604 56.9774 11.4424 56.9607 11.493L56.887 11.5833C56.8428 11.7439 56.8104 11.9029 56.7898 12.0601C56.7693 12.2173 56.7443 12.3776 56.7149 12.5409C56.6929 12.6212 56.6886 12.7086 56.7023 12.803C56.716 12.8974 56.7149 12.9892 56.6989 13.0783L56.7354 13.1308C56.724 13.1518 56.7116 13.1993 56.6983 13.2736C56.6876 13.333 56.6883 13.3714 56.7005 13.3889C56.8555 13.2942 57.0223 13.1977 57.2008 13.0995C57.3794 13.0013 57.5682 12.9739 57.7673 13.0174C57.6527 13.0581 57.5456 13.1001 57.4458 13.1435C57.3487 13.172 57.252 13.2198 57.1557 13.2868C56.9805 13.4086 56.8368 13.5475 56.7245 13.7036C56.7245 13.7036 56.7256 13.7613 56.7279 13.8766C56.7301 13.992 56.728 14.1104 56.7215 14.2318C56.7177 14.3384 56.7188 14.3961 56.7249 14.4049C56.723 14.4582 56.7314 14.5823 56.75 14.7772C56.7625 14.9634 56.7794 15.1465 56.8007 15.3266C56.8247 15.4918 56.8353 15.5818 56.8326 15.5967C56.8631 15.6405 56.8895 15.7065 56.912 15.7949C56.9344 15.8832 56.9521 15.9553 56.9651 16.0113L56.9611 16.0336L56.9702 16.0467C57.0067 16.0993 57.0332 16.1653 57.0495 16.2449C57.0659 16.3245 57.0805 16.3922 57.0935 16.4482C57.1791 16.7395 57.3102 17.0121 57.4868 17.266C57.5355 17.3361 57.6052 17.4176 57.6958 17.5105C57.7951 17.5973 57.8994 17.6352 58.0087 17.6242C58.0323 17.6208 58.0778 17.6021 58.1452 17.5682C58.2213 17.5283 58.2685 17.5214 58.2868 17.5477C58.3112 17.5827 58.3015 17.6155 58.2577 17.6459ZM57.7805 13.0082C57.7717 13.0143 57.7673 13.0174 57.7673 13.0174C57.7673 13.0174 57.7717 13.0143 57.7805 13.0082ZM59.7157 15.1704C59.5931 15.2556 59.4117 15.2844 59.1714 15.2565C58.9251 15.2199 58.7563 15.136 58.665 15.0046L58.6518 15.0137C58.6362 14.9726 58.5871 14.8833 58.5045 14.7459C58.4219 14.6084 58.3951 14.5231 58.424 14.49L58.4058 14.4638C58.4084 14.4489 58.406 14.3987 58.3984 14.313C58.3908 14.2273 58.3801 14.1373 58.3664 14.0429C58.3615 13.9424 58.3573 13.8803 58.3539 13.8567C58.3497 13.7946 58.3619 13.6627 58.3905 13.461C58.413 13.2504 58.446 13.0456 58.4894 12.8465C58.5329 12.6474 58.5721 12.5357 58.6071 12.5113C58.6049 12.396 58.6403 12.2414 58.7134 12.0476C58.7953 11.8478 58.8802 11.6523 58.9682 11.4612C59.0649 11.264 59.1318 11.1266 59.1687 11.0489L59.1596 11.0358L59.1819 11.0398L59.195 11.0306C59.2057 10.9713 59.247 10.8906 59.319 10.7885C59.3936 10.6717 59.4454 10.5967 59.4743 10.5636C59.5174 10.4947 59.5665 10.4345 59.6217 10.3831C59.6769 10.3317 59.7321 10.2804 59.7873 10.229C59.8372 10.2073 59.884 10.1812 59.9278 10.1508C59.9804 10.1142 60.0316 10.0851 60.0815 10.0634C60.1812 10.02 60.311 10.0012 60.4709 10.0069C60.6247 10.0039 60.7382 10.055 60.8113 10.16C60.8086 10.1749 60.809 10.1941 60.8124 10.2177C60.8158 10.2413 60.8249 10.2545 60.8398 10.2571L60.769 10.2674C60.6494 10.2076 60.531 10.2055 60.4138 10.2611C60.2904 10.3079 60.1806 10.3648 60.0842 10.4318C59.8478 10.5962 59.6408 10.831 59.4634 11.1363C59.2798 11.4329 59.1281 11.7658 59.0081 12.1351C58.8881 12.5043 58.8035 12.8685 58.7543 13.2275C58.7139 13.5804 58.7156 13.891 58.7593 14.1594L58.8295 14.3445C58.8729 14.4442 58.9045 14.5457 58.9243 14.6489C58.9441 14.752 58.9874 14.8518 59.0544 14.9481C59.1031 15.0182 59.1484 15.0646 59.1903 15.0875C59.2261 15.1016 59.2872 15.1241 59.3736 15.1549L59.3908 15.1235L59.3999 15.1366L59.4079 15.0921L59.4696 15.0687C59.5065 14.991 59.5539 14.9191 59.6118 14.8529C59.6636 14.7779 59.6962 14.7032 59.7095 14.629L59.7175 14.5845C59.7579 14.5304 59.7847 14.4663 59.798 14.392C59.8114 14.3178 59.8234 14.251 59.8341 14.1916C59.8802 13.9776 59.9263 13.7637 59.9724 13.5497C60.0185 13.3358 60.0528 13.1236 60.0753 12.913C60.0878 12.8003 60.1058 12.658 60.129 12.4859C60.1523 12.3138 60.1837 12.1815 60.2233 12.089L60.1999 12.0273C60.2517 11.9523 60.2747 11.8454 60.2691 11.7064C60.2721 11.5613 60.2739 11.4237 60.2743 11.2935C60.2773 11.1485 60.3095 11.0546 60.3708 11.012L60.4142 10.9623C60.4843 10.9136 60.5625 10.9047 60.6489 10.9355C60.7293 10.9576 60.7907 10.9993 60.8334 11.0606C60.8821 11.1307 60.915 11.2247 60.9321 11.3427C60.9492 11.4608 60.9734 11.5609 61.0046 11.6431C61.0887 11.8575 61.1738 12.0452 61.2598 12.2062C61.3397 12.3585 61.4436 12.5266 61.5715 12.7106C61.6507 12.8244 61.7352 12.9085 61.825 12.963C61.9236 13.0114 62.0427 13.0519 62.1825 13.0847L62.2481 13.039C62.322 12.8837 62.3578 12.7484 62.3556 12.633C62.3533 12.5177 62.3611 12.3888 62.379 12.2464C62.3878 12.2403 62.3935 12.2299 62.3962 12.215C62.3989 12.2002 62.4002 12.1927 62.4002 12.1927C62.4177 12.1806 62.4325 12.1832 62.4447 12.2007C62.4691 12.2358 62.4847 12.2769 62.4915 12.3241C62.501 12.3565 62.5167 12.3976 62.5383 12.4475C62.5878 12.556 62.6255 12.6662 62.6514 12.7781C62.6799 12.8752 62.6241 12.9725 62.484 13.0699C62.4052 13.1247 62.3054 13.1681 62.1847 13.2001C62.064 13.232 61.9517 13.2387 61.8478 13.22C61.6129 13.1625 61.417 13.0583 61.2602 12.9075C61.1061 12.7419 60.962 12.5627 60.828 12.3701L60.5357 11.9497L60.5094 11.968C60.5109 12.0449 60.5081 12.1248 60.5008 12.2078C60.4936 12.2908 60.4863 12.3738 60.4791 12.4568C60.4684 12.5162 60.452 12.5861 60.4299 12.6664C60.4105 12.7319 60.4015 12.8031 60.4031 12.88C60.3855 12.8921 60.3718 12.9471 60.3619 13.045C60.3547 13.128 60.3602 13.1826 60.3784 13.2089C60.3232 13.2603 60.2897 13.3615 60.2779 13.5127C60.2748 13.6577 60.2601 13.7394 60.2339 13.7577C60.2434 13.79 60.2432 13.8551 60.2333 13.953C60.2173 14.042 60.2053 14.1089 60.1973 14.1534C60.142 14.2048 60.1108 14.272 60.1036 14.355C60.1051 14.4319 60.1035 14.5044 60.099 14.5725C60.0445 14.6624 59.9904 14.7714 59.9367 14.8997C59.8769 15.0193 59.8033 15.1095 59.7157 15.1704ZM63.8359 11.7205C63.7099 11.7821 63.57 11.8145 63.4162 11.8175C63.2624 11.8205 63.1398 11.7564 63.0485 11.625C62.9267 11.4498 62.8942 11.2256 62.9509 10.9523C63.0165 10.6728 63.0696 10.441 63.1104 10.2567C63.238 9.67427 63.3866 9.10323 63.5561 8.54361C63.7344 7.97791 63.9039 7.41829 64.0646 6.86477C64.1423 6.60285 64.2187 6.34836 64.2937 6.1013C64.3688 5.85423 64.4334 5.60145 64.4875 5.34295C64.5008 5.26872 64.5094 5.1783 64.5132 5.0717C64.5197 4.95026 64.5016 4.85888 64.459 4.79758C64.4042 4.71877 64.3081 4.72065 64.1706 4.80324C64.0271 4.87708 63.9247 4.93531 63.8634 4.97794C63.6357 5.13628 63.3946 5.36885 63.1403 5.67566C62.8798 5.97371 62.639 6.29061 62.4177 6.62636C62.1965 6.96211 62.0278 7.26132 61.9116 7.52399C61.9009 7.58337 61.8781 7.62525 61.843 7.64961C61.8472 7.71166 61.8366 7.77105 61.811 7.82778C61.7855 7.8845 61.763 7.9456 61.7436 8.01108C61.7276 8.10016 61.7116 8.18924 61.6956 8.27833C61.6735 8.35865 61.6649 8.44907 61.6699 8.54958C61.6733 8.57318 61.6754 8.60421 61.6761 8.64266C61.6856 8.67502 61.6877 8.70605 61.6824 8.73575C61.6885 8.7445 61.6889 8.76373 61.6835 8.79342L61.6441 8.82083C61.6091 8.84519 61.5588 8.84765 61.4934 8.82823C61.4305 8.79395 61.387 8.7593 61.3626 8.72427C61.2956 8.62794 61.2913 8.48156 61.3495 8.28512C61.4017 8.07993 61.4745 7.86693 61.5678 7.64614C61.6699 7.41925 61.7653 7.22948 61.854 7.07683C61.9454 6.90934 61.9911 6.82559 61.9911 6.82559C62.057 6.71481 62.1215 6.61146 62.1847 6.51553C62.2419 6.41085 62.3095 6.31187 62.3875 6.21861L62.5954 5.9571L62.5863 5.94396L62.9256 5.5911C62.9336 5.54656 62.9696 5.49555 63.0335 5.43808C63.0914 5.37184 63.1379 5.32655 63.1729 5.30219C63.1957 5.26031 63.2466 5.21197 63.3254 5.15716L63.3162 5.14403L63.3425 5.12576C63.4126 5.07704 63.4796 5.02394 63.5436 4.96646C63.6102 4.89414 63.6785 4.83362 63.7486 4.7849C63.8712 4.69964 63.9946 4.65283 64.1187 4.64448C64.2367 4.62737 64.3669 4.62777 64.5093 4.64569L64.5224 4.63655L64.5133 4.62342L64.5264 4.61428L64.5356 4.62742L64.5487 4.61828C64.5731 4.65331 64.6062 4.68225 64.648 4.7051C64.6926 4.7131 64.7301 4.739 64.7605 4.78279C64.8214 4.87036 64.8722 4.97145 64.913 5.08605C64.9476 5.19189 64.963 5.29811 64.9592 5.40471C64.9115 5.84061 64.7923 6.24833 64.6015 6.62787C64.4194 7.00131 64.2465 7.3879 64.0827 7.78761C64.0176 7.93684 63.963 8.09178 63.9188 8.25243C63.8685 8.40433 63.8287 8.56193 63.7993 8.72525C63.8028 8.74886 63.7887 8.78464 63.7571 8.83261C63.7194 8.87181 63.6978 8.90626 63.6925 8.93596C63.6677 9.03113 63.6443 9.11888 63.6222 9.19921C63.6001 9.27953 63.5737 9.3629 63.5428 9.44932C63.512 9.53574 63.4946 9.63224 63.4908 9.73884C63.4809 9.83668 63.4635 9.93319 63.4388 10.0284C63.4254 10.1026 63.4077 10.1799 63.3856 10.2602C63.3574 10.3318 63.3367 10.4047 63.3233 10.4789C63.3108 10.5916 63.3064 10.7441 63.3101 10.9363C63.3078 11.1198 63.3401 11.2598 63.4071 11.3561C63.3957 11.377 63.4008 11.4124 63.4225 11.4623C63.4381 11.5034 63.452 11.5327 63.4642 11.5503C63.5312 11.6466 63.6403 11.7007 63.7914 11.7125L63.8177 11.6942L63.8359 11.7205ZM63.9739 13.3201C63.8863 13.381 63.7888 13.3903 63.6815 13.348C63.5741 13.3057 63.493 13.2452 63.4382 13.1664C63.3895 13.0963 63.3526 13.0245 63.3275 12.9511C63.3172 12.8802 63.3039 12.805 63.2876 12.7255C63.3313 12.695 63.4001 12.6537 63.4937 12.6016C63.5935 12.5582 63.6708 12.5759 63.7256 12.6547C63.7621 12.7073 63.7619 12.7724 63.725 12.85C63.7029 12.9304 63.7284 13.0231 63.8014 13.1282C63.8441 13.1895 63.8934 13.2136 63.9493 13.2007C64.0114 13.1965 64.0516 13.2076 64.0698 13.2339C64.0496 13.2609 64.0177 13.2896 63.9739 13.3201Z" fill="white"/>
<path d="M12.1901 59.6076C11.9734 59.7788 11.9365 60.0932 12.1076 60.3099C12.2788 60.5266 12.5932 60.5635 12.8099 60.3924L12.1901 59.6076ZM12.8099 60.3924L72.3099 13.3924L71.6901 12.6076L12.1901 59.6076L12.8099 60.3924Z" fill="white"/>
<path d="M48.4247 62.1446L48.9022 61.9965L48.7838 61.6147L48.3853 61.6461L48.4247 62.1446ZM37.9041 69.5663L37.4335 69.7352L37.9041 69.5663ZM42.5068 78L41.3819 72.3372L37.0402 76.1428L42.5068 78ZM30.5103 50.101C30.5831 50.4542 30.6589 50.8005 30.7376 51.1401L31.7118 50.9143C31.635 50.5828 31.5609 50.2444 31.4897 49.899L30.5103 50.101ZM31.2711 53.1943C31.4753 53.9 31.6931 54.5728 31.923 55.2145L32.8644 54.8771C32.6417 54.2557 32.4303 53.6027 32.2317 52.9163L31.2711 53.1943ZM32.7112 57.1916C33.0113 57.8702 33.3262 58.508 33.6538 59.1078L34.5314 58.6284C34.2176 58.0538 33.9149 57.4411 33.6258 56.7872L32.7112 57.1916ZM34.7667 60.936C35.1858 61.5541 35.6191 62.1223 36.0629 62.6452L36.8254 61.9982C36.4051 61.503 35.9935 60.9635 35.5945 60.3749L34.7667 60.936ZM37.5473 64.2009C38.0963 64.7114 38.6532 65.1645 39.2116 65.5682L39.7975 64.7578C39.2713 64.3773 38.7462 63.9502 38.2284 63.4686L37.5473 64.2009ZM41.0306 66.7214C41.6886 67.0852 42.3373 67.3913 42.965 67.6536L43.3505 66.7309C42.7521 66.4808 42.1367 66.1903 41.5144 65.8463L41.0306 66.7214ZM44.9707 68.3872C45.3221 68.5001 45.6605 68.6023 45.9826 68.6967L46.264 67.7371C45.9471 67.6442 45.6174 67.5446 45.2767 67.4352L44.9707 68.3872ZM45.9826 68.6967C46.4096 68.8219 46.8006 68.8834 47.1574 68.8808L47.15 67.8808C46.9122 67.8826 46.62 67.8415 46.264 67.7371L45.9826 68.6967ZM49.2181 67.4584C49.4863 66.7786 49.5287 65.9514 49.4853 65.1877L48.487 65.2444C48.5274 65.9565 48.477 66.612 48.2879 67.0914L49.2181 67.4584ZM49.1719 63.0436C49.1031 62.7331 49.0363 62.4735 48.9865 62.2907C48.9616 62.1993 48.9409 62.1269 48.9262 62.0768C48.9189 62.0518 48.9131 62.0323 48.909 62.0188C48.907 62.012 48.9054 62.0067 48.9042 62.003C48.9037 62.0011 48.9032 61.9997 48.9029 61.9986C48.9027 61.998 48.9026 61.9976 48.9025 61.9972C48.9024 61.9971 48.9024 61.9969 48.9023 61.9968C48.9023 61.9967 48.9023 61.9967 48.9023 61.9966C48.9023 61.9966 48.9022 61.9966 48.9022 61.9966C48.9022 61.9965 48.9022 61.9965 48.4247 62.1446C47.9471 62.2927 47.9471 62.2926 47.9471 62.2926C47.9471 62.2926 47.9471 62.2926 47.9471 62.2926C47.9471 62.2926 47.947 62.2925 47.947 62.2925C47.947 62.2925 47.947 62.2925 47.947 62.2925C47.9471 62.2926 47.9471 62.2927 47.9472 62.2929C47.9473 62.2934 47.9476 62.2943 47.948 62.2955C47.9487 62.298 47.95 62.302 47.9516 62.3075C47.9549 62.3185 47.9599 62.3353 47.9665 62.3576C47.9795 62.4021 47.9985 62.4685 48.0216 62.5535C48.068 62.7237 48.1308 62.9677 48.1956 63.2601L49.1719 63.0436ZM48.4247 62.1446C48.3853 61.6461 48.3853 61.6461 48.3853 61.6461C48.3853 61.6461 48.3852 61.6461 48.3852 61.6461C48.3852 61.6461 48.3851 61.6461 48.3851 61.6461C48.385 61.6462 48.3849 61.6462 48.3847 61.6462C48.3845 61.6462 48.3841 61.6462 48.3836 61.6463C48.3828 61.6463 48.3815 61.6464 48.38 61.6466C48.3768 61.6468 48.3724 61.6472 48.3666 61.6477C48.3552 61.6486 48.3385 61.6501 48.3168 61.652C48.2736 61.6559 48.2105 61.6618 48.1296 61.6701C47.9677 61.6866 47.7343 61.7125 47.4449 61.7503L47.5742 62.7419C47.8535 62.7055 48.0776 62.6806 48.2312 62.6649C48.3079 62.6571 48.367 62.6516 48.4065 62.648C48.4262 62.6462 48.441 62.6449 48.4507 62.6441C48.4555 62.6437 48.4591 62.6434 48.4613 62.6433C48.4624 62.6432 48.4632 62.6431 48.4636 62.6431C48.4639 62.643 48.464 62.643 48.4641 62.643C48.4641 62.643 48.4641 62.643 48.4641 62.643C48.4641 62.643 48.4641 62.643 48.4641 62.643C48.4641 62.643 48.464 62.643 48.464 62.643C48.464 62.643 48.464 62.643 48.4247 62.1446ZM45.5859 62.0524C45.014 62.1638 44.3886 62.3033 43.7457 62.4768L44.0062 63.4423C44.6223 63.276 45.2242 63.1417 45.7771 63.034L45.5859 62.0524ZM41.9367 63.0533C41.3331 63.2797 40.7389 63.5424 40.1855 63.8471L40.6679 64.723C41.1703 64.4464 41.719 64.2029 42.2879 63.9896L41.9367 63.0533ZM38.5783 64.9852C38.0669 65.4637 37.6493 66.0208 37.3951 66.6671L38.3257 67.0331C38.5141 66.554 38.8334 66.116 39.2616 65.7154L38.5783 64.9852ZM37.1776 68.7407C37.2264 69.0631 37.3112 69.3945 37.4335 69.7352L38.3747 69.3973C38.2724 69.1124 38.2046 68.844 38.1664 68.5911L37.1776 68.7407ZM37.4335 69.7352C37.5765 70.1334 37.7195 70.5151 37.8621 70.8807L38.7938 70.5174C38.6545 70.1603 38.5147 69.7871 38.3747 69.3973L37.4335 69.7352ZM38.8232 73.137C39.2166 73.9813 39.5964 74.7052 39.9503 75.3215L40.8175 74.8236C40.4782 74.2326 40.1114 73.5339 39.7296 72.7146L38.8232 73.137Z" fill="white"/>
</svg>
