<svg width="127" height="119" viewBox="0 0 127 119" fill="none" xmlns="http://www.w3.org/2000/svg">
<path d="M130.835 1.72167L168.288 130.21L1.86496 120.607L83.2279 78.945L83.3525 78.8813L83.4258 78.762L130.835 1.72167Z" fill="#1F5155" stroke="white"/>
<path d="M71.932 97.6326L73.5962 95.9684C73.9737 95.5909 74.35 95.3297 74.7252 95.1847C75.1027 95.0374 75.4721 95.0086 75.8335 95.0983C76.1949 95.1835 76.539 95.3895 76.8659 95.7164C77.0961 95.9466 77.2595 96.2044 77.3562 96.4898C77.4528 96.7706 77.4804 97.0652 77.439 97.3737C77.3976 97.6775 77.2882 97.9825 77.111 98.2886L76.9971 98.5476L75.433 100.112L74.884 99.5765L76.0649 98.3956C76.3042 98.1563 76.4619 97.9157 76.5379 97.674C76.6115 97.4301 76.6173 97.1964 76.5551 96.9731C76.493 96.7499 76.3756 96.5519 76.203 96.3793C76.0096 96.1859 75.8024 96.0547 75.5815 95.9857C75.3605 95.9166 75.1292 95.9247 74.8875 96.0099C74.6458 96.0904 74.3972 96.2584 74.1417 96.5139L73.1439 97.5118L77.6255 101.993L76.9591 102.66L71.932 97.6326ZM79.8973 99.7215L76.3963 98.665L77.0868 97.9675L80.5671 98.9688L80.6086 99.0102L79.8973 99.7215ZM83.968 94.5666L84.5101 95.1087L81.8481 97.7707L81.306 97.2286L83.968 94.5666ZM76.9556 92.609L81.9827 97.6361L81.3164 98.3024L76.2893 93.2753L76.9556 92.609ZM81.2922 92.5952L81.8343 93.1372L79.5244 95.4471L78.9824 94.905L81.2922 92.5952ZM79.4485 90.1161L79.994 90.6617L77.3665 93.2891L76.821 92.7436L79.4485 90.1161ZM86.5472 88.0653L88.3874 89.9055C88.4174 90.0598 88.422 90.2623 88.4012 90.5132C88.3782 90.7618 88.2896 91.0484 88.1354 91.3729C87.9812 91.6929 87.7165 92.0404 87.3413 92.4156C87.0351 92.7218 86.7002 92.9508 86.3365 93.1027C85.9729 93.25 85.5942 93.3156 85.2006 93.2995C84.807 93.2788 84.4111 93.1729 84.0129 92.9819C83.6147 92.7862 83.228 92.5008 82.8528 92.1256L82.4626 91.7354C82.0875 91.3603 81.7963 90.9816 81.5891 90.5995C81.3843 90.2151 81.2657 89.8342 81.2335 89.4567C81.199 89.0769 81.2542 88.7086 81.3992 88.3518C81.5419 87.9928 81.7756 87.6509 82.1001 87.3264C82.4845 86.942 82.8724 86.6876 83.2637 86.5633C83.655 86.4344 84.0394 86.4137 84.4169 86.5012C84.7967 86.5864 85.1557 86.7567 85.4941 87.0122L84.8277 87.6786C84.616 87.5266 84.3904 87.4208 84.151 87.3609C83.9139 87.2988 83.6688 87.3045 83.4156 87.3782C83.1601 87.4495 82.9034 87.6141 82.6456 87.8719C82.4132 88.1044 82.2543 88.3484 82.1692 88.6039C82.084 88.8594 82.0656 89.1218 82.1139 89.3911C82.1623 89.6604 82.2716 89.9355 82.4419 90.2163C82.6146 90.4948 82.8424 90.7756 83.1256 91.0587L83.5226 91.4558C83.8126 91.7458 84.105 91.9714 84.3996 92.1325C84.6965 92.2913 84.9889 92.388 85.2766 92.4225C85.562 92.4548 85.8336 92.4248 86.0914 92.3328C86.3515 92.2384 86.5886 92.0842 86.8027 91.8701C87.0397 91.633 87.2124 91.4213 87.3206 91.2348C87.4264 91.0461 87.4932 90.8826 87.5208 90.7445C87.5461 90.6041 87.5553 90.4867 87.5484 90.3924L86.4229 89.2668L85.2593 90.4303L84.7207 89.8917L86.5472 88.0653ZM85.8428 83.7218L90.8699 88.7489L90.2035 89.4153L85.1764 84.3882L85.8428 83.7218ZM93.4905 83.5871C93.3731 83.4698 93.2511 83.3846 93.1245 83.3316C92.9979 83.2741 92.8529 83.2534 92.6895 83.2695C92.5283 83.2833 92.3361 83.3351 92.1129 83.4249C91.8919 83.5123 91.6283 83.6401 91.3222 83.8081C91 83.9831 90.6938 84.1258 90.4038 84.2362C90.1115 84.3444 89.8353 84.4112 89.5751 84.4365C89.315 84.4618 89.0711 84.4365 88.8432 84.3605C88.6153 84.2846 88.4035 84.1488 88.2079 83.9531C88.0122 83.7575 87.8718 83.5365 87.7867 83.2902C87.7015 83.0439 87.6727 82.785 87.7004 82.5134C87.728 82.2372 87.812 81.9598 87.9524 81.6813C88.0928 81.4028 88.2919 81.1346 88.5497 80.8768C88.9272 80.4993 89.3197 80.2519 89.7271 80.1345C90.1345 80.0125 90.5235 79.9987 90.8941 80.093C91.2624 80.1851 91.5777 80.3624 91.8401 80.6248L91.1772 81.2877C90.9884 81.0989 90.7813 80.9723 90.5557 80.9079C90.3278 80.8411 90.0907 80.848 89.8445 80.9286C89.5959 81.0069 89.3461 81.1714 89.0952 81.4223C88.8581 81.6594 88.6982 81.8907 88.6153 82.1163C88.5324 82.3419 88.514 82.5536 88.5601 82.7516C88.6084 82.9473 88.7108 83.1233 88.8674 83.2799C88.9732 83.3857 89.0918 83.4605 89.223 83.5043C89.3542 83.5434 89.5038 83.5526 89.6718 83.5319C89.8422 83.5089 90.0321 83.4548 90.2415 83.3696C90.4533 83.2822 90.6915 83.1636 90.9562 83.014C91.3222 82.8091 91.6583 82.6526 91.9644 82.5444C92.2705 82.4363 92.5525 82.3776 92.8103 82.3684C93.0681 82.3545 93.3075 82.3937 93.5285 82.4857C93.7494 82.5732 93.9577 82.7148 94.1534 82.9104C94.3582 83.1153 94.5021 83.342 94.585 83.5906C94.6678 83.8392 94.6909 84.0993 94.654 84.3709C94.6172 84.6425 94.5228 84.9187 94.3709 85.1995C94.219 85.4758 94.0107 85.7462 93.746 86.0109C93.5135 86.2434 93.2522 86.4402 92.9622 86.6013C92.6745 86.7602 92.3741 86.8672 92.0611 86.9224C91.7503 86.9754 91.4453 86.9627 91.1461 86.8844C90.8469 86.8016 90.5718 86.6347 90.3209 86.3838L90.9838 85.7209C91.1565 85.8935 91.3383 86.0086 91.5294 86.0662C91.7181 86.1214 91.9103 86.1318 92.106 86.0972C92.3039 86.0604 92.4961 85.9879 92.6826 85.8797C92.869 85.7669 93.0428 85.63 93.2039 85.4689C93.4364 85.2364 93.601 85.0073 93.6976 84.7818C93.7943 84.5562 93.8242 84.3421 93.7874 84.1396C93.7529 83.9347 93.6539 83.7506 93.4905 83.5871ZM93.1107 76.4539L98.1378 81.481L97.4818 82.137L92.4547 77.1099L93.1107 76.4539ZM94.7265 74.8381L95.2721 75.3836L91.3878 79.2679L90.8423 78.7223L94.7265 74.8381ZM95.4723 74.0923L97.1365 72.4281C97.514 72.0506 97.8903 71.7894 98.2655 71.6444C98.643 71.497 99.0124 71.4683 99.3738 71.558C99.7352 71.6432 100.079 71.8492 100.406 72.1761C100.636 72.4063 100.8 72.6641 100.896 72.9495C100.993 73.2303 101.021 73.5249 100.979 73.8334C100.938 74.1372 100.829 74.4422 100.651 74.7483L100.537 75.0073L98.9733 76.5713L98.4243 76.0362L99.6052 74.8553C99.8445 74.616 100.002 74.3754 100.078 74.1337C100.152 73.8897 100.158 73.6561 100.095 73.4328C100.033 73.2096 99.9159 73.0116 99.7433 72.839C99.5499 72.6456 99.3428 72.5144 99.1218 72.4454C98.9008 72.3763 98.6695 72.3844 98.4278 72.4696C98.1861 72.5501 97.9375 72.7181 97.682 72.9736L96.6842 73.9715L101.166 78.453L100.499 79.1194L95.4723 74.0923ZM103.438 76.1812L99.9366 75.1247L100.627 74.4272L104.107 75.4285L104.149 75.4699L103.438 76.1812ZM102.136 68.3194L105.053 74.5653L104.373 75.2455L101.262 68.3022L101.701 67.8637L102.136 68.3194ZM108.113 71.5063L101.863 68.5922L101.407 68.1572L101.846 67.7187L108.796 70.8226L108.113 71.5063ZM106.165 69.7316L106.711 70.2771L103.886 73.1014L103.341 72.5559L106.165 69.7316ZM104.442 65.1223L106.107 63.4581C106.484 63.0806 106.86 62.8193 107.236 62.6743C107.613 62.527 107.982 62.4982 108.344 62.588C108.705 62.6732 109.049 62.8792 109.376 63.206C109.606 63.4362 109.77 63.694 109.866 63.9794C109.963 64.2603 109.991 64.5549 109.949 64.8633C109.908 65.1672 109.799 65.4721 109.621 65.7783L109.507 66.0372L107.943 67.6013L107.394 67.0661L108.575 65.8853C108.815 65.6459 108.972 65.4054 109.048 65.1637C109.122 64.9197 109.128 64.6861 109.065 64.4628C109.003 64.2395 108.886 64.0416 108.713 63.869C108.52 63.6756 108.313 63.5444 108.092 63.4753C107.871 63.4063 107.64 63.4143 107.398 63.4995C107.156 63.5801 106.908 63.7481 106.652 64.0036L105.654 65.0014L110.136 69.483L109.469 70.1494L104.442 65.1223ZM112.408 67.2111L108.907 66.1546L109.597 65.4572L113.077 66.4585L113.119 66.4999L112.408 67.2111Z" fill="white"/>
<path d="M114.074 104.074C113.98 104.169 113.871 104.242 113.747 104.296C113.623 104.349 113.502 104.375 113.385 104.375L106.879 104.375C106.62 104.375 106.39 104.275 106.19 104.074C105.99 103.874 105.889 103.644 105.889 103.385C105.889 103.126 105.99 102.896 106.19 102.695C106.39 102.495 106.62 102.395 106.879 102.395L112.395 102.395L112.395 96.8794C112.395 96.6201 112.495 96.3903 112.695 96.19C112.896 95.9896 113.126 95.8895 113.385 95.8895C113.644 95.8895 113.874 95.9896 114.074 96.19C114.275 96.3903 114.375 96.6201 114.375 96.8794V103.385C114.375 103.526 114.348 103.653 114.296 103.765C114.243 103.877 114.169 103.98 114.074 104.074Z" fill="white"/>
</svg>
