<svg width="124" height="116" viewBox="0 0 124 116" fill="none" xmlns="http://www.w3.org/2000/svg">
<path d="M130.835 1.22167L168.288 129.71L1.86496 120.107L83.2279 78.445L83.3525 78.3813L83.4258 78.262L130.835 1.22167Z" fill="#00FFFF" stroke="white"/>
<path d="M81.4362 91.0985L81.9783 91.6405L79.3162 94.3025L78.7742 93.7605L81.4362 91.0985ZM74.4238 89.1408L79.4509 94.1679L78.7845 94.8343L73.7574 89.8072L74.4238 89.1408ZM78.7604 89.127L79.3024 89.6691L76.9926 91.9789L76.4505 91.4368L78.7604 89.127ZM76.9166 86.648L77.4622 87.1935L74.8347 89.821L74.2892 89.2755L76.9166 86.648ZM81.6433 81.9213L86.6704 86.9484L86.0006 87.6182L79.5925 86.2716L83.4698 90.149L82.8034 90.8153L77.7764 85.7883L78.4427 85.1219L84.8716 86.4684L80.9839 82.5807L81.6433 81.9213ZM84.5781 78.9865L89.6052 84.0136L88.9492 84.6696L83.9221 79.6425L84.5781 78.9865ZM86.194 77.3706L86.7395 77.9162L82.8552 81.8004L82.3097 81.2549L86.194 77.3706ZM86.9397 76.6249L88.6039 74.9607C88.9814 74.5832 89.3578 74.3219 89.733 74.1769C90.1104 74.0296 90.4799 74.0008 90.8413 74.0906C91.2026 74.1758 91.5468 74.3818 91.8736 74.7086C92.1038 74.9388 92.2672 75.1966 92.3639 75.482C92.4606 75.7629 92.4882 76.0575 92.4468 76.3659C92.4053 76.6698 92.296 76.9747 92.1187 77.2809L92.0048 77.5398L90.4407 79.1039L89.8918 78.5687L91.0726 77.3879C91.312 77.1485 91.4696 76.908 91.5456 76.6663C91.6193 76.4223 91.625 76.1887 91.5629 75.9654C91.5007 75.7421 91.3833 75.5442 91.2107 75.3716C91.0173 75.1782 90.8102 75.047 90.5892 74.9779C90.3682 74.9089 90.1369 74.917 89.8952 75.0021C89.6535 75.0827 89.4049 75.2507 89.1495 75.5062L88.1516 76.504L92.6332 80.9856L91.9668 81.652L86.9397 76.6249ZM94.9051 78.7137L91.404 77.6572L92.0946 76.9598L95.5749 77.9611L95.6163 78.0025L94.9051 78.7137ZM93.6034 70.852L96.5209 77.0979L95.8407 77.7781L92.7299 70.8347L93.1684 70.3963L93.6034 70.852ZM99.58 74.0388L93.3306 71.1248L92.8749 70.6897L93.3134 70.2512L100.264 73.3552L99.58 74.0388ZM97.6327 72.2642L98.1782 72.8097L95.3539 75.634L94.8084 75.0884L97.6327 72.2642ZM95.9098 67.6548L97.574 65.9907C97.9515 65.6132 98.3278 65.3519 98.703 65.2069C99.0805 65.0596 99.4499 65.0308 99.8113 65.1206C100.173 65.2057 100.517 65.4118 100.844 65.7386C101.074 65.9688 101.237 66.2266 101.334 66.512C101.431 66.7928 101.458 67.0874 101.417 67.3959C101.375 67.6997 101.266 68.0047 101.089 68.3108L100.975 68.5698L99.4108 70.1339L98.8618 69.5987L100.043 68.4179C100.282 68.1785 100.44 67.938 100.516 67.6963C100.589 67.4523 100.595 67.2186 100.533 66.9954C100.471 66.7721 100.353 66.5742 100.181 66.4015C99.9874 66.2082 99.7802 66.077 99.5592 66.0079C99.3383 65.9389 99.107 65.9469 98.8653 66.0321C98.6236 66.1126 98.375 66.2807 98.1195 66.5362L97.1217 67.534L101.603 72.0156L100.937 72.6819L95.9098 67.6548ZM103.875 69.7437L100.374 68.6872L101.065 67.9897L104.545 68.991L104.586 69.0325L103.875 69.7437Z" fill="#131313"/>
<path d="M111.074 101.074C110.98 101.169 110.871 101.242 110.747 101.296C110.623 101.349 110.502 101.375 110.385 101.375L103.879 101.375C103.62 101.375 103.39 101.275 103.19 101.074C102.99 100.874 102.889 100.644 102.889 100.385C102.889 100.126 102.99 99.8957 103.19 99.6954C103.39 99.495 103.62 99.3948 103.879 99.3948L109.395 99.3948L109.395 93.8794C109.395 93.6201 109.495 93.3903 109.695 93.19C109.896 92.9896 110.126 92.8895 110.385 92.8895C110.644 92.8895 110.874 92.9896 111.074 93.19C111.275 93.3903 111.375 93.6201 111.375 93.8794V100.385C111.375 100.526 111.348 100.653 111.296 100.765C111.243 100.877 111.169 100.98 111.074 101.074Z" fill="white"/>
</svg>
