<svg width="67" height="59" viewBox="0 0 67 59" fill="none" xmlns="http://www.w3.org/2000/svg">
<path d="M4.81591 33.3822C4.68568 33.4436 4.52766 33.3899 4.34185 33.2211C4.16669 33.056 4.02109 32.8505 3.90504 32.6045C3.44425 31.6277 3.3347 29.9236 3.57639 27.492C3.58592 26.7622 3.66304 26.3632 3.80774 26.2949C3.89457 26.2539 4.00248 26.2296 4.13149 26.2218C4.26774 26.2106 4.34951 26.2339 4.37682 26.2918L4.25031 27.5987C4.22043 27.9666 4.19007 28.2773 4.15922 28.5306C4.13561 28.7806 4.12047 28.9735 4.11378 29.1093C4.03778 30.242 4.05229 31.1728 4.1573 31.9017C4.21175 31.3983 4.38271 30.7295 4.67019 29.8951C4.95767 29.0606 5.34589 28.046 5.83485 26.8512L6.31788 25.6813C6.38968 25.5147 6.51241 25.3905 6.68605 25.3086C6.77288 25.2676 6.82824 25.2725 6.85213 25.3231L6.86175 25.3717C6.79141 27.9789 6.99004 29.7781 7.45765 30.7694C7.70681 31.2975 7.92545 31.5172 8.11357 31.4285C8.30169 31.3398 8.37211 30.8422 8.32485 29.9357C8.33494 29.8071 8.35085 29.7377 8.37255 29.7274C8.39426 29.7172 8.41876 29.741 8.44607 29.7989C8.46314 29.8351 8.47488 29.8693 8.4813 29.9017C8.64952 30.8395 8.53104 31.4041 8.12586 31.5952C7.93051 31.6873 7.72164 31.6665 7.49924 31.5326C7.28409 31.3952 7.09459 31.1529 6.93076 30.8056C6.7601 30.4439 6.60137 29.873 6.45459 29.0931C6.3814 28.6942 6.32398 28.31 6.28233 27.9404C6.24791 27.5674 6.22565 27.2109 6.21553 26.8706L4.93784 29.928C4.40997 31.4154 4.27233 32.4268 4.52491 32.9622C4.59317 33.1069 4.70144 33.2239 4.8497 33.3132C4.86335 33.3421 4.85209 33.3651 4.81591 33.3822ZM9.56515 30.4651C9.42045 30.5334 9.25588 30.5314 9.07144 30.4592C8.89082 30.3763 8.75102 30.23 8.65204 30.0202C8.55306 29.8103 8.52608 29.425 8.57111 28.8642C8.61955 28.3106 8.74636 27.7731 8.95153 27.2518C9.15287 26.741 9.38378 26.4242 9.64425 26.3014L9.75278 26.2502C10.0205 26.1239 10.274 26.0706 10.5133 26.0904C10.7492 26.103 10.9081 26.1961 10.99 26.3697C11.0276 26.4493 11.0138 26.5045 10.9487 26.5352C10.927 26.5454 10.911 26.5397 10.9008 26.518C10.6587 26.3049 10.4183 26.2546 10.1795 26.3673C9.76713 26.5618 9.45725 27.1238 9.24992 28.053C9.03575 28.9679 9.014 29.6061 9.18466 29.9679C9.24951 30.1054 9.31811 30.1571 9.39047 30.1229C9.71606 29.9693 10.0534 28.9124 10.4024 26.9521C10.3985 26.9628 10.4022 26.9611 10.4132 26.947C10.4281 26.9223 10.4428 26.9065 10.4572 26.8997C10.4934 26.8826 10.5865 26.883 10.7363 26.9007C10.8828 26.9112 10.968 26.9418 10.9919 26.9924C10.9919 26.9924 10.9894 27.0246 10.9843 27.0889C10.9759 27.146 10.9721 27.2318 10.9731 27.3463C10.9734 27.6469 10.9973 27.932 11.0448 28.2014C11.0961 28.4603 11.1628 28.6765 11.2447 28.8502C11.4256 29.2336 11.6101 29.381 11.7982 29.2923L11.8965 29.2194L11.9233 29.22C11.954 29.2851 11.879 29.3603 11.6981 29.4456C11.5244 29.5276 11.3422 29.5162 11.1513 29.4117C10.9643 29.2965 10.8059 29.1014 10.6762 28.8264C10.5499 28.5587 10.457 28.2399 10.3975 27.8699C10.4005 27.895 10.3939 27.9468 10.3778 28.0252C10.3617 28.1035 10.3408 28.2372 10.315 28.4263C10.1552 29.6251 9.90522 30.3047 9.56515 30.4651ZM8.85892 25.9023L8.83783 25.8857C8.82759 25.864 8.83243 25.8086 8.85236 25.7196C8.87229 25.6306 8.90839 25.5384 8.96068 25.443C9.01678 25.3369 9.09548 25.26 9.19678 25.2122L9.95158 25.0684C10.0529 25.0206 10.1232 24.9166 10.1627 24.7565C10.1916 24.7429 10.2142 24.772 10.2305 24.8439C10.254 24.9125 10.2245 25.0281 10.142 25.1908C10.0897 25.2863 10.0347 25.3476 9.97678 25.3749C9.89719 25.4125 9.74989 25.4377 9.53487 25.4507C9.32709 25.4603 9.19064 25.4804 9.12552 25.5111C9.07488 25.535 8.98601 25.6654 8.85892 25.9023ZM13.0596 28.7105C12.4736 28.9869 12.0355 28.8177 11.7454 28.2027C11.6293 27.9567 11.5607 27.6706 11.5395 27.3444C11.5222 27.0077 11.5558 26.7132 11.6403 26.461C11.4958 26.3611 11.3758 26.2098 11.2802 26.0073C11.1813 25.7974 11.1793 25.5684 11.2745 25.32C11.3662 25.0645 11.5387 24.8769 11.7919 24.7575C12.2622 24.5356 12.6966 24.6314 13.0951 25.0449C13.4659 24.9496 13.6735 24.949 13.7179 25.0431C13.7691 25.1516 13.7585 25.2229 13.6861 25.2571L13.3943 25.3417C13.4357 25.4106 13.47 25.474 13.4973 25.5319C13.5319 25.5864 13.5594 25.6353 13.5799 25.6787C13.8598 26.272 13.9587 26.8755 13.8767 27.4891C13.7878 28.0883 13.5155 28.4954 13.0596 28.7105ZM11.7461 26.2917C12.064 25.6906 12.3171 25.3457 12.5052 25.2569L12.5377 25.2416C12.317 25.0361 12.0691 24.9982 11.7942 25.1279C11.6712 25.186 11.5904 25.2771 11.5518 25.4015C11.5097 25.5187 11.4979 25.6436 11.5163 25.7765C11.5348 25.9093 11.5662 26.0227 11.6105 26.1168C11.6515 26.2036 11.6967 26.2619 11.7461 26.2917ZM12.9874 28.5853C13.284 28.4454 13.4533 28.0825 13.4954 27.4965C13.534 26.9033 13.4526 26.3933 13.2512 25.9664C13.1625 25.7783 13.0582 25.6417 12.9385 25.5567C12.6913 25.7264 12.4785 26.0347 12.3 26.4815C12.3963 26.498 12.4661 26.496 12.5095 26.4755C12.5495 26.4478 12.5731 26.4323 12.5804 26.4288C12.6166 26.4118 12.6432 26.4213 12.6602 26.4575C12.6876 26.5154 12.6542 26.5665 12.5601 26.6109C12.4805 26.6484 12.3781 26.6658 12.253 26.6629C12.0811 27.2924 12.089 27.8061 12.2768 28.2041C12.4611 28.5948 12.6979 28.7219 12.9874 28.5853ZM17.3241 26.9508C17.0058 27.101 16.7664 27.0061 16.606 26.666C16.4626 26.3621 16.3762 25.9164 16.3467 25.3288C16.3375 25.1031 16.3284 24.8775 16.3192 24.6518C16.3101 24.4262 16.2998 24.17 16.2885 23.8835C15.9981 23.9055 15.8085 23.8224 15.7198 23.6343C15.6925 23.5764 15.6882 23.5298 15.7069 23.4944C15.8393 23.4939 16.0228 23.4516 16.2573 23.3675C16.2435 22.7194 16.2025 22.323 16.1342 22.1783C16.0591 22.0191 15.9926 21.9532 15.9347 21.9805L15.7433 22.1372C15.7216 22.1474 15.7056 22.1417 15.6954 22.12C15.6681 22.0621 15.691 21.9982 15.7642 21.9283C15.8339 21.8512 15.8905 21.8024 15.9339 21.7819C16.2523 21.6317 16.4968 21.7375 16.6674 22.0993C16.7664 22.3091 16.831 22.6147 16.8612 23.0162C16.9038 23.0315 17.0408 22.9846 17.2724 22.8753C17.5111 22.7627 17.6801 22.6521 17.7792 22.5434C17.8676 22.4309 17.9372 22.3627 17.9878 22.3388C18.0096 22.3286 18.0238 22.3307 18.0306 22.3451C18.0409 22.3669 18.0365 22.4043 18.0173 22.4576C17.9268 22.6595 17.7989 22.857 17.6334 23.05C17.4752 23.2396 17.2708 23.4157 17.0201 23.5781L16.9876 23.5935C16.9803 23.5969 16.9712 23.6057 16.9601 23.6197C16.9457 23.6265 16.9201 23.6474 16.8835 23.6824C16.8429 25.3026 16.9062 26.2899 17.0735 26.6445C17.1281 26.7602 17.1988 26.7976 17.2856 26.7567L17.5588 26.5482L17.5748 26.5539C17.6464 26.7059 17.5629 26.8382 17.3241 26.9508ZM19.4956 25.8203C18.8806 26.1104 18.4382 25.9697 18.1686 25.3981C17.9604 24.9567 17.9249 24.3189 18.062 23.4847C18.2137 22.6436 18.4921 22.1275 18.8973 21.9363C19.0709 21.8544 19.2502 21.8406 19.435 21.8949C19.6237 21.9386 19.7556 22.04 19.8307 22.1992C19.9569 22.4669 19.9149 22.8185 19.7046 23.2538C19.498 23.6785 19.232 23.9677 18.9064 24.1213C18.8412 24.152 18.8019 24.1529 18.7882 24.124L18.7952 24.0543C19.5044 23.4013 19.719 22.7782 19.4391 22.1849C19.3982 22.0981 19.3487 22.0683 19.2909 22.0956C19.2113 22.1332 19.1058 22.2846 18.9745 22.55C18.8619 22.7801 18.7704 23.0267 18.6999 23.2899C18.6367 23.5497 18.5914 23.8099 18.564 24.0705C18.5117 24.6347 18.5555 25.0652 18.6955 25.3618C18.832 25.6512 19.0124 25.7431 19.2367 25.6372C19.4972 25.5144 19.7198 25.2457 19.9047 24.8312C19.9616 24.6894 20.0206 24.5333 20.0818 24.3629C20.1395 24.1853 20.203 23.9917 20.2722 23.7821C20.4034 23.3664 20.4762 23.1552 20.4907 23.1483C20.5341 23.1279 20.5643 23.1357 20.5814 23.1719C20.5951 23.2008 20.6015 23.2332 20.6007 23.2689C20.3632 24.7343 19.9948 25.5848 19.4956 25.8203ZM21.6678 24.6761C21.5955 24.7103 21.511 24.728 21.4143 24.7294C21.3177 24.7308 21.2574 24.7061 21.2335 24.6555C21.1755 24.5325 21.0901 24.042 20.9773 23.1842C20.8611 22.3191 20.7142 21.6984 20.5367 21.3221C20.4821 21.2064 20.4007 21.1652 20.2926 21.1985C20.1845 21.2318 20.1236 21.234 20.11 21.205C20.0792 21.1399 20.1181 21.0817 20.2267 21.0306C20.7114 20.8019 21.0477 20.8865 21.2354 21.2844C21.3276 21.4798 21.4031 21.8555 21.4619 22.4115L21.5119 21.8705C21.5456 21.4919 21.61 21.1785 21.7052 20.9302C21.7969 20.6746 21.9477 20.4973 22.1575 20.3983L22.1792 20.3881C22.512 20.2311 22.7843 20.3769 22.9959 20.8255C23.0812 21.0064 23.1596 21.2569 23.231 21.577C23.3024 21.8971 23.3632 22.2886 23.4135 22.7514L24.1426 20.4437C24.2166 20.3381 24.3332 20.2477 24.4924 20.1726C24.6588 20.0941 24.7573 20.0874 24.7881 20.1525C24.8673 21.0705 24.9922 21.7103 25.1629 22.0721C25.3233 22.4121 25.465 22.5532 25.588 22.4951L25.5513 22.2205C25.5969 22.2609 25.6436 22.3318 25.6914 22.4331C25.7802 22.6212 25.7666 22.7426 25.6509 22.7972C25.2746 22.9747 24.9329 22.7378 24.6257 22.0866C24.5506 21.9275 24.4762 21.7415 24.4023 21.5286C24.3357 21.3124 24.2697 21.0693 24.2043 20.7994C24.1546 20.9378 24.1138 21.0765 24.082 21.2153C24.054 21.3435 24.0257 21.4896 23.9969 21.6536L23.8062 22.712C23.7033 23.3002 23.6157 23.6113 23.5433 23.6454C23.2973 23.7615 23.1539 23.7761 23.1129 23.6893C23.1095 23.682 23.0691 23.4932 22.9917 23.1229C22.7943 22.0483 22.6189 21.3483 22.4653 21.0227C22.3936 20.8707 22.3108 20.817 22.2167 20.8613C21.949 20.9876 21.7732 21.5526 21.6895 22.5563C21.6781 22.7385 21.6696 22.9549 21.6639 23.2052C21.662 23.445 21.6639 23.674 21.6696 23.8925C21.6757 23.9427 21.6772 24.0304 21.6744 24.1556C21.6787 24.2774 21.6814 24.3955 21.6824 24.5101C21.6799 24.6174 21.6751 24.6727 21.6678 24.6761ZM30.936 20.4499C30.7262 20.5489 30.5137 20.5297 30.2986 20.3924C30.2001 20.315 30.1072 20.2305 30.0199 20.1391C29.9363 20.0369 29.8587 19.9099 29.787 19.758C29.7188 19.6133 29.6547 19.44 29.5949 19.2383C29.5424 19.0331 29.4851 18.7992 29.4231 18.5365C29.3594 19.1327 29.3017 19.6198 29.2501 19.998C29.1951 20.3689 29.146 20.6398 29.1027 20.8106C29.0344 21.1347 28.9063 21.3411 28.7181 21.4298C28.5373 21.5151 28.3546 21.5217 28.1702 21.4495C27.9895 21.3666 27.8617 21.2456 27.7866 21.0864C27.6467 20.7898 27.5703 20.2155 27.5576 19.3635C27.538 18.497 27.5249 18.0565 27.518 18.042L27.3282 17.8928C27.318 17.8711 27.3382 17.8483 27.3888 17.8244C27.4539 17.7936 27.5904 17.7735 27.7982 17.7639C28.0132 17.751 28.1326 17.7698 28.1565 17.8204C28.1545 17.9099 28.1506 18.0798 28.1449 18.3301C28.143 18.5699 28.1373 18.8954 28.1279 19.3067C28.127 20.1298 28.1777 20.6498 28.2801 20.8669C28.3859 21.0912 28.4858 21.1812 28.5799 21.1368C28.6957 21.0822 28.8006 20.8734 28.8948 20.5106C28.9423 20.3113 28.9826 20.1153 29.0156 19.9229C29.0487 19.7304 29.0785 19.5217 29.1051 19.2968L29.3205 17.3908C29.3471 17.1659 29.4219 17.0245 29.5449 16.9665C29.7909 16.8504 29.9433 16.836 30.0021 16.9232C29.9808 16.9156 29.973 16.9458 29.9786 17.014C29.9501 17.4785 29.9755 18.0105 30.0548 18.61C30.1346 19.1916 30.2154 19.5692 30.2973 19.7428C30.5055 20.1842 30.6892 20.3673 30.8484 20.2922C30.899 20.2683 30.9715 20.1501 31.0659 19.9375C31.0803 19.9307 31.1012 19.9562 31.1285 20.0141C31.2173 20.2022 31.1531 20.3475 30.936 20.4499ZM31.9167 19.8413C31.8443 19.8754 31.7598 19.8932 31.6632 19.8946C31.5665 19.8959 31.5063 19.8713 31.4824 19.8206C31.4243 19.6976 31.3389 19.2072 31.2261 18.3493C31.1099 17.4842 30.9631 16.8636 30.7856 16.4873C30.731 16.3715 30.6496 16.3303 30.5415 16.3636C30.4334 16.397 30.3725 16.3991 30.3588 16.3702C30.3281 16.3051 30.367 16.2469 30.4756 16.1957C30.9603 15.967 31.2966 16.0517 31.4843 16.4496C31.5764 16.645 31.652 17.0207 31.7108 17.5767L31.7608 17.0357C31.7945 16.6571 31.8589 16.3437 31.954 16.0953C32.0458 15.8398 32.1965 15.6625 32.4064 15.5635L32.4281 15.5533C32.7609 15.3963 33.0331 15.542 33.2447 15.9906C33.3301 16.1715 33.4084 16.422 33.4799 16.7422C33.5513 17.0623 33.6121 17.4538 33.6624 17.9166L34.3915 15.6089C34.4655 15.5032 34.5821 15.4128 34.7412 15.3378C34.9076 15.2593 35.0062 15.2526 35.0369 15.3177C35.1161 16.2356 35.2411 16.8755 35.4117 17.2372C35.5722 17.5773 35.7139 17.7183 35.8369 17.6603L35.8002 17.3857C35.8458 17.4261 35.8925 17.497 35.9403 17.5982C36.029 17.7864 36.0155 17.9077 35.8997 17.9623C35.5235 18.1398 35.1818 17.903 34.8746 17.2518C34.7995 17.0926 34.725 16.9066 34.6512 16.6938C34.5845 16.4776 34.5185 16.2345 34.4531 15.9646C34.4034 16.103 34.3627 16.2417 34.3309 16.3805C34.3029 16.5087 34.2745 16.6548 34.2457 16.8187L34.0551 17.8772C33.9522 18.4653 33.8646 18.7765 33.7922 18.8106C33.5462 18.9267 33.4027 18.9413 33.3618 18.8544C33.3584 18.8472 33.3179 18.6584 33.2405 18.288C33.0432 17.2135 32.8678 16.5134 32.7142 16.1879C32.6425 16.0359 32.5596 15.9821 32.4656 16.0265C32.1979 16.1528 32.0221 16.7178 31.9383 17.7215C31.927 17.9037 31.9185 18.12 31.9128 18.3704C31.9109 18.6101 31.9128 18.8392 31.9185 19.0576C31.9245 19.1079 31.9261 19.1956 31.9232 19.3208C31.9276 19.4425 31.9303 19.5607 31.9312 19.6752C31.9288 19.7825 31.9239 19.8379 31.9167 19.8413ZM36.9096 17.5656C36.7649 17.6338 36.6003 17.6318 36.4159 17.5596C36.2353 17.4768 36.0955 17.3304 35.9965 17.1206C35.8975 16.9108 35.8705 16.5255 35.9156 15.9646C35.964 15.4111 36.0908 14.8736 36.296 14.3522C36.4973 13.8415 36.7282 13.5247 36.9887 13.4018L37.0972 13.3506C37.3649 13.2243 37.6185 13.1711 37.8578 13.1909C38.0937 13.2034 38.2526 13.2965 38.3345 13.4702C38.372 13.5498 38.3583 13.6049 38.2931 13.6356C38.2714 13.6459 38.2555 13.6401 38.2452 13.6184C38.0032 13.4053 37.7628 13.3551 37.524 13.4677C37.1116 13.6623 36.8017 14.2242 36.5944 15.1535C36.3802 16.0683 36.3585 16.7066 36.5291 17.0684C36.594 17.2058 36.6626 17.2575 36.7349 17.2234C37.0605 17.0698 37.3978 16.0129 37.7468 14.0526C37.743 14.0632 37.7466 14.0615 37.7577 14.0475C37.7725 14.0227 37.7872 14.007 37.8017 14.0002C37.8379 13.9831 37.9309 13.9834 38.0808 14.0012C38.2273 14.0117 38.3125 14.0422 38.3364 14.0929C38.3364 14.0929 38.3338 14.125 38.3288 14.1893C38.3203 14.2464 38.3166 14.3322 38.3175 14.4468C38.3178 14.7474 38.3417 15.0324 38.3892 15.3019C38.4406 15.5607 38.5072 15.777 38.5891 15.9506C38.77 16.3341 38.9545 16.4815 39.1427 16.3927L39.241 16.3198L39.2678 16.3204C39.2985 16.3855 39.2234 16.4608 39.0425 16.5461C38.8689 16.628 38.6866 16.6167 38.4958 16.5121C38.3087 16.3969 38.1504 16.2018 38.0207 15.9269C37.8944 15.6592 37.8015 15.3403 37.7419 14.9704C37.7449 14.9955 37.7384 15.0472 37.7223 15.1256C37.7062 15.204 37.6852 15.3377 37.6594 15.5268C37.4996 16.7255 37.2497 17.4051 36.9096 17.5656ZM42.431 15.0007C41.816 15.2908 41.3737 15.1501 41.104 14.5785C40.8992 14.1444 40.8654 13.5102 41.0026 12.6759C41.1436 11.831 41.4167 11.313 41.8219 11.1218C41.9666 11.0536 42.1405 11.0379 42.3436 11.0747C42.5506 11.1009 42.6831 11.1755 42.7411 11.2985C42.9015 11.6386 42.866 11.8632 42.6344 11.9724C42.5766 11.9997 42.5318 11.9987 42.5003 11.9694C42.4881 11.7186 42.4531 11.5317 42.395 11.4087C42.3404 11.2929 42.2842 11.2487 42.2263 11.276C42.1467 11.3136 42.0412 11.465 41.9099 11.7304C41.7973 11.9605 41.7058 12.2071 41.6353 12.4703C41.5721 12.7301 41.5268 12.9903 41.4994 13.2509C41.4471 13.8151 41.491 14.2456 41.6309 14.5422C41.7674 14.8316 41.9479 14.9234 42.1722 14.8176C42.4326 14.6947 42.6553 14.4261 42.8401 14.0116C42.897 13.8698 42.9561 13.7136 43.0172 13.5433C43.075 13.3657 43.1384 13.1721 43.2076 12.9625C43.3388 12.5468 43.4116 12.3355 43.4261 12.3287C43.4695 12.3082 43.4998 12.3161 43.5168 12.3523C43.5305 12.3812 43.5369 12.4136 43.5361 12.4493C43.2986 13.9147 42.9302 14.7652 42.431 15.0007ZM45.0357 13.626C44.4496 13.9025 44.0115 13.7332 43.7214 13.1182C43.6054 12.8722 43.5368 12.5861 43.5156 12.26C43.4982 11.9232 43.5318 11.6287 43.6163 11.3766C43.4719 11.2766 43.3519 11.1254 43.2563 10.9228C43.1573 10.713 43.1554 10.4839 43.2505 10.2356C43.3423 9.98 43.5147 9.79248 43.768 9.67302C44.2383 9.45116 44.6727 9.54698 45.0712 9.96048C45.442 9.86518 45.6496 9.86455 45.6939 9.95861C45.7451 10.0671 45.7345 10.1385 45.6622 10.1726L45.3704 10.2572C45.4118 10.3261 45.4461 10.3895 45.4734 10.4474C45.5079 10.5019 45.5354 10.5508 45.5559 10.5942C45.8358 11.1875 45.9347 11.791 45.8527 12.4047C45.7639 13.0038 45.4915 13.411 45.0357 13.626ZM43.7222 11.2072C44.0401 10.6061 44.2931 10.2612 44.4812 10.1724L44.5138 10.1571C44.293 9.95163 44.0452 9.91376 43.7703 10.0435C43.6473 10.1015 43.5664 10.1927 43.5278 10.3171C43.4858 10.4342 43.474 10.5592 43.4924 10.692C43.5108 10.8248 43.5422 10.9383 43.5866 11.0323C43.6276 11.1192 43.6728 11.1775 43.7222 11.2072ZM44.9634 13.5009C45.2601 13.3609 45.4294 12.998 45.4714 12.4121C45.51 11.8189 45.4286 11.3089 45.2273 10.882C45.1385 10.6939 45.0343 10.5573 44.9146 10.4722C44.6673 10.6419 44.4545 10.9502 44.2761 11.397C44.3723 11.4135 44.4422 11.4116 44.4856 11.3911C44.5256 11.3634 44.5492 11.3478 44.5564 11.3444C44.5926 11.3273 44.6192 11.3369 44.6363 11.373C44.6636 11.4309 44.6302 11.4821 44.5362 11.5264C44.4566 11.564 44.3542 11.5813 44.229 11.5785C44.0572 12.2079 44.0651 12.7217 44.2528 13.1196C44.4371 13.5103 44.674 13.6374 44.9634 13.5009ZM47.178 12.6419C47.1056 12.6761 47.0283 12.6904 46.9462 12.6849C46.8606 12.6722 46.8039 12.6459 46.7762 12.6059C46.7182 12.4829 46.6327 11.9925 46.52 11.1346C46.4037 10.2695 46.2569 9.64881 46.0794 9.27257C46.0282 9.16404 45.9739 9.11449 45.9164 9.12391C45.8555 9.12609 45.8015 9.14275 45.7542 9.17388C45.7036 9.19777 45.6697 9.19163 45.6527 9.15545C45.6219 9.09033 45.6608 9.03218 45.7694 8.98098C46.2541 8.75229 46.5904 8.83692 46.7781 9.23487C46.8464 9.37957 46.9509 10.0512 47.0917 11.2497C47.1314 10.9213 47.1777 10.6164 47.2307 10.3349C47.2875 10.0428 47.3456 9.77211 47.4049 9.52296C47.5309 9.02126 47.6446 8.74651 47.7459 8.69872C47.7459 8.69872 47.7476 8.70234 47.751 8.70958C47.7582 8.70616 47.7635 8.70807 47.767 8.71531C47.7704 8.72255 47.7717 8.74405 47.7709 8.77981C47.7739 8.80493 47.7675 8.84773 47.7518 8.90821C47.4141 10.2174 47.2537 11.2838 47.2707 12.1073L47.3061 12.4355C47.3147 12.5288 47.272 12.5976 47.178 12.6419ZM49.4808 11.7015C49.271 11.8005 49.0585 11.7813 48.8434 11.644C48.6423 11.5177 48.4564 11.2737 48.2857 10.9119C48.1219 10.5646 47.9958 10.0536 47.9075 9.37878C47.8191 8.70398 47.8618 8.32562 48.0354 8.2437L48.0897 8.2181C48.3284 8.10546 48.4772 8.09276 48.5361 8.18C48.5148 8.17235 48.5069 8.20259 48.5125 8.27071C48.4966 8.49938 48.4945 8.74805 48.5062 9.01672C48.5252 9.28197 48.5563 9.5636 48.5996 9.86162C48.6794 10.4432 48.7602 10.8208 48.8421 10.9944C49.0503 11.4358 49.234 11.6189 49.3932 11.5438C49.4366 11.5234 49.4827 11.4618 49.5316 11.3591C49.5877 11.253 49.6105 11.1981 49.5998 11.1943C49.6215 11.184 49.646 11.2079 49.6733 11.2657C49.7621 11.4539 49.6979 11.5991 49.4808 11.7015ZM50.5826 11.2614C50.2643 11.4115 50.0249 11.3166 49.8645 10.9765C49.7211 10.6727 49.6347 10.2269 49.6052 9.63936C49.596 9.4137 49.5868 9.18804 49.5777 8.96237C49.5685 8.73671 49.5583 8.4806 49.547 8.19405C49.2566 8.21604 49.067 8.13298 48.9783 7.94486C48.951 7.88697 48.9467 7.84035 48.9654 7.80499C49.0978 7.80444 49.2813 7.76212 49.5158 7.67801C49.502 7.02996 49.461 6.63358 49.3927 6.48888C49.3176 6.3297 49.2511 6.26376 49.1932 6.29107L49.0018 6.44773C48.9801 6.45797 48.9641 6.45224 48.9539 6.43053C48.9265 6.37265 48.9495 6.30876 49.0226 6.23886C49.0924 6.16172 49.149 6.11292 49.1924 6.09244C49.5108 5.94226 49.7553 6.04805 49.9259 6.40981C50.0249 6.61964 50.0895 6.9253 50.1197 7.3268C50.1623 7.34209 50.2993 7.29512 50.5309 7.1859C50.7696 7.07326 50.9386 6.96261 51.0377 6.85394C51.1261 6.74144 51.1957 6.67325 51.2463 6.64936C51.268 6.63912 51.2823 6.64123 51.2891 6.6557C51.2994 6.67741 51.2949 6.71488 51.2758 6.76812C51.1853 6.97004 51.0573 7.16752 50.8919 7.36056C50.7337 7.55019 50.5292 7.72624 50.2786 7.8887L50.246 7.90406C50.2388 7.90747 50.2297 7.91621 50.2186 7.93027C50.2041 7.9371 50.1786 7.95799 50.142 7.99294C50.1014 9.61313 50.1647 10.6005 50.332 10.955C50.3866 11.0708 50.4573 11.1082 50.5441 11.0672L50.8173 10.8588L50.8333 10.8645C50.9049 11.0164 50.8214 11.1487 50.5826 11.2614ZM52.373 10.2708C52.2283 10.3391 52.0637 10.3371 51.8793 10.2649C51.6987 10.182 51.5589 10.0357 51.4599 9.82587C51.3609 9.61604 51.3339 9.23072 51.379 8.6699C51.4274 8.11632 51.5542 7.57885 51.7594 7.05748C51.9607 6.54676 52.1916 6.22996 52.4521 6.10708L52.5606 6.05588C52.8283 5.92959 53.0819 5.87634 53.3212 5.89613C53.5571 5.90868 53.716 6.00178 53.7979 6.17543C53.8354 6.25502 53.8217 6.31017 53.7565 6.34089C53.7348 6.35113 53.7189 6.3454 53.7086 6.32369C53.4666 6.11059 53.2262 6.06036 52.9874 6.173C52.575 6.36755 52.2651 6.92947 52.0578 7.85876C51.8436 8.77357 51.8219 9.41186 51.9925 9.77363C52.0574 9.9111 52.126 9.96277 52.1983 9.92864C52.5239 9.77504 52.8612 8.71811 53.2102 6.75784C53.2064 6.76848 53.21 6.76678 53.2211 6.75272C53.2359 6.728 53.2506 6.71224 53.2651 6.70541C53.3013 6.68834 53.3943 6.68868 53.5442 6.70642C53.6907 6.71693 53.7759 6.74751 53.7998 6.79815C53.7998 6.79815 53.7972 6.8303 53.7922 6.8946C53.7837 6.95167 53.78 7.03747 53.7809 7.15201C53.7812 7.45262 53.8051 7.73767 53.8526 8.00716C53.904 8.26599 53.9706 8.48223 54.0525 8.65588C54.2334 9.03935 54.4179 9.18672 54.6061 9.09798L54.7043 9.02507L54.7312 9.02568C54.7619 9.0908 54.6868 9.16603 54.5059 9.25136C54.3323 9.33327 54.15 9.32195 53.9592 9.21738C53.7721 9.10217 53.6138 8.90709 53.4841 8.63215C53.3578 8.36444 53.2649 8.04561 53.2053 7.67565C53.2083 7.70076 53.2018 7.75251 53.1857 7.83087C53.1696 7.90923 53.1486 8.04295 53.1228 8.23203C52.963 9.4308 52.7131 10.1104 52.373 10.2708ZM56.0259 7.22074C55.8595 7.29925 55.6541 7.2856 55.4096 7.17981C55.1689 7.06337 54.999 6.90024 54.9001 6.69041C54.7977 6.47335 54.8364 6.18974 55.0161 5.83956C55.1096 5.66277 55.2119 5.49512 55.3229 5.33662C55.4411 5.1747 55.5663 5.01832 55.6986 4.86746C56.429 4.07181 56.7378 3.5546 56.6252 3.31583C56.5364 3.12771 56.0797 3.22821 55.2548 3.61731C54.43 4.00642 54.0893 4.35291 54.2326 4.6568L54.3579 4.80997C54.375 4.84614 54.3727 4.86935 54.351 4.87959C54.3148 4.89666 54.2211 4.84799 54.0698 4.73359C53.933 4.61237 53.8544 4.53005 53.8339 4.48664C53.7452 4.29852 53.8016 4.09941 54.0032 3.8893C54.2053 3.66131 54.5306 3.4415 54.9792 3.22988C55.4278 3.01827 55.8686 2.91204 56.3016 2.9112C56.724 2.90655 56.9898 3.01998 57.099 3.25151C57.2048 3.47581 57.1553 3.76455 56.9504 4.11773C56.8535 4.28728 56.7423 4.45473 56.6168 4.62006C56.4914 4.78538 56.3553 4.94689 56.2085 5.10457C55.4237 5.93477 55.0962 6.48734 55.2259 6.76228C55.2975 6.91422 55.5623 6.99721 56.02 7.01126C56.1273 7.01371 56.1899 7.01514 56.2078 7.01555C56.2295 7.00531 56.2438 7.00743 56.2506 7.0219C56.2745 7.07255 56.1996 7.13883 56.0259 7.22074ZM55.7242 8.91549C55.6518 8.94962 55.5986 8.93051 55.5644 8.85816C55.4723 8.6628 55.4408 8.47421 55.47 8.29236C55.503 8.09987 55.6064 7.96267 55.78 7.88075C55.9681 7.79201 56.0827 7.79105 56.1236 7.87787C56.1134 7.85616 55.9802 8.20204 55.7242 8.91549Z" fill="white"/>
<path d="M0.5 37L58.5 10.5L66 8" stroke="white"/>
<path d="M44.0376 49.2891C44.3124 49.262 44.5132 49.0173 44.4861 48.7425L44.0442 44.2642C44.0171 43.9894 43.7724 43.7886 43.4976 43.8157C43.2228 43.8428 43.022 44.0876 43.0491 44.3624L43.4418 48.3431L39.4612 48.7358C39.1863 48.7629 38.9856 49.0077 39.0127 49.2825C39.0398 49.5573 39.2845 49.7581 39.5593 49.731L44.0376 49.2891ZM30.8718 37.6441L30.9295 38.1407L30.9295 38.1407L30.8718 37.6441ZM44.3056 48.405C44.0139 48.1657 43.7304 47.9302 43.455 47.6984L42.8112 48.4636C43.0899 48.6981 43.3765 48.9362 43.6714 49.1781L44.3056 48.405ZM41.8607 46.3202C41.3052 45.8258 40.7899 45.3507 40.3123 44.8943L39.6214 45.6172C40.1081 46.0824 40.6322 46.5655 41.1958 47.0672L41.8607 46.3202ZM38.8161 43.3983C38.2822 42.8367 37.8132 42.3088 37.4032 41.813L36.6325 42.4502C37.0589 42.9659 37.5434 43.5111 38.0915 44.0874L38.8161 43.3983ZM36.1539 40.1368C35.7088 39.4571 35.4033 38.8628 35.207 38.3469L34.2724 38.7026C34.4998 39.3001 34.8421 39.9588 35.3173 40.6846L36.1539 40.1368ZM34.9563 36.5397C35.079 35.9424 35.4692 35.5549 35.9888 35.3225L35.5804 34.4096C34.839 34.7413 34.1785 35.3558 33.9768 36.3386L34.9563 36.5397ZM37.788 35.124C37.9723 35.1615 38.1097 35.2136 38.198 35.2648C38.2928 35.3196 38.2867 35.3463 38.274 35.3114C38.2661 35.2899 38.264 35.2649 38.2674 35.2444C38.2703 35.2266 38.2746 35.2287 38.2592 35.2517C38.2237 35.3046 38.1237 35.4089 37.8905 35.5457L38.3965 36.4083C38.693 36.2343 38.9361 36.0378 39.0898 35.8086C39.2541 35.5635 39.322 35.2656 39.2131 34.9679C39.1142 34.6974 38.9006 34.516 38.6991 34.3994C38.4913 34.279 38.2439 34.1962 37.9873 34.144L37.788 35.124ZM36.0396 36.2384C35.475 36.3905 34.7949 36.5422 33.9831 36.6888L34.1609 37.6729C34.9944 37.5223 35.7026 37.3648 36.2997 37.204L36.0396 36.2384ZM31.9055 37.0114C31.5584 37.0578 31.1948 37.1032 30.8141 37.1474L30.9295 38.1407C31.3156 38.0959 31.6849 38.0498 32.038 38.0026L31.9055 37.0114ZM30.8141 37.1474C30.4638 37.1881 30.12 37.2257 29.7826 37.2602L29.8843 38.255C30.2264 38.22 30.5747 38.182 30.9295 38.1407L30.8141 37.1474ZM27.7494 37.4377C27.0317 37.489 26.347 37.5253 25.6941 37.5478L25.7286 38.5472C26.3944 38.5242 27.0913 38.4873 27.8207 38.4351L27.7494 37.4377ZM23.6576 37.5741C22.9333 37.5666 22.2556 37.5402 21.6218 37.4975L21.5545 38.4952C22.2085 38.5393 22.9052 38.5663 23.6472 38.574L23.6576 37.5741ZM19.6054 37.2889C18.8693 37.1832 18.2112 37.0522 17.624 36.9026L17.3771 37.8716C18.002 38.0308 18.6952 38.1685 19.4631 38.2788L19.6054 37.2889ZM15.7477 36.2705C15.0338 35.9564 14.5038 35.6151 14.1184 35.2816L13.464 36.0377C13.9365 36.4466 14.5549 36.8382 15.3448 37.1858L15.7477 36.2705ZM13.2082 33.8766C13.1634 33.554 13.2725 33.4208 13.3013 33.399L12.6987 32.601C12.2857 32.9128 12.1419 33.468 12.2177 34.014L13.2082 33.8766Z" fill="white"/>
</svg>
